<?xml version="1.0" standalone="no"?>
<!DOCTYPE svg PUBLIC "-//W3C//DTD SVG 20010904//EN"
 "http://www.w3.org/TR/2001/REC-SVG-20010904/DTD/svg10.dtd">
<svg version="1.0" xmlns="http://www.w3.org/2000/svg"
 width="1120.000000pt" height="1103.000000pt" viewBox="0 0 1120.000000 1103.000000"
 preserveAspectRatio="xMidYMid meet">
<metadata>
Created by potrace 1.11, written by Peter Selinger 2001-2013
</metadata>
<g transform="translate(0.000000,1103.000000) scale(0.100000,-0.100000)"
fill="#000000" stroke="none">
<path d="M4920 10310 c0 -9 61 -22 68 -15 3 3 0 5 -7 5 -7 0 -10 4 -7 8 3 5
-8 9 -24 9 -17 0 -30 -4 -30 -7z"/>
<path d="M5008 10303 c6 -2 18 -2 25 0 6 3 1 5 -13 5 -14 0 -19 -2 -12 -5z"/>
<path d="M5050 10291 c0 -4 -11 -6 -25 -3 -14 2 -32 -2 -41 -9 -14 -12 -14
-14 2 -26 17 -12 17 -13 1 -13 -10 0 -21 9 -25 20 -5 14 -11 17 -22 10 -13 -8
-12 -12 5 -27 11 -10 38 -27 59 -38 44 -22 53 -29 109 -80 21 -19 44 -35 50
-35 9 0 8 -3 0 -8 -10 -6 -10 -12 2 -28 13 -17 16 -17 26 -4 9 13 10 12 5 -3
-3 -10 10 -38 34 -74 22 -31 40 -61 40 -66 0 -5 7 -15 15 -21 8 -6 17 -22 20
-36 2 -14 18 -65 34 -115 31 -93 39 -125 48 -185 3 -19 9 -39 13 -45 11 -13 5
-277 -8 -340 -8 -42 -7 -51 7 -61 19 -15 272 -18 316 -5 17 5 22 10 13 10 -9
1 -20 6 -23 11 -4 7 13 10 49 8 30 -1 52 -6 50 -10 -10 -16 9 -7 26 12 10 11
21 39 24 62 4 24 14 50 23 60 9 10 12 18 8 18 -4 0 2 9 14 19 13 11 29 17 37
14 8 -3 14 0 14 5 0 6 -8 13 -17 16 -10 2 -4 5 12 4 54 0 57 1 50 25 -7 22 -7
22 8 2 9 -11 19 -17 23 -12 4 4 1 7 -7 7 -23 0 23 27 61 35 30 7 32 9 15 16
-16 6 -13 8 15 9 29 1 32 3 15 10 -14 6 -16 9 -5 11 32 4 46 6 70 8 23 2 24 3
5 11 -22 10 -22 10 18 15 16 2 34 8 41 14 9 7 16 7 25 -2 11 -10 13 -9 9 3 -3
8 -15 15 -27 14 -12 0 -18 3 -14 7 14 13 61 21 67 11 3 -5 18 -7 33 -4 25 5
25 6 8 13 -20 7 -20 8 0 8 12 1 26 6 33 13 8 8 12 9 12 1 0 -6 -3 -13 -7 -16
-5 -2 -2 -2 5 0 8 1 21 3 30 4 14 0 13 2 -3 9 -18 8 -17 9 8 9 16 1 26 -3 22
-9 -3 -5 1 -10 9 -10 9 0 16 6 16 14 0 9 8 12 25 8 14 -2 32 1 40 8 9 8 15 8
15 2 0 -6 10 -12 23 -14 12 -2 21 -9 20 -16 -2 -6 5 -13 15 -13 22 -2 20 -2
67 6 30 5 36 4 25 -4 -13 -9 -12 -11 3 -11 10 0 15 -4 12 -10 -3 -5 0 -11 7
-11 7 -1 18 -2 23 -3 6 0 31 -14 57 -29 26 -16 53 -25 59 -21 8 4 9 3 5 -4 -4
-7 -1 -12 8 -12 13 0 13 -4 0 -35 -24 -58 -18 -104 22 -158 20 -27 50 -55 69
-63 61 -25 194 8 229 58 53 73 74 118 80 164 6 50 5 53 -30 83 -19 18 -49 34
-65 38 -16 3 -32 10 -35 14 -11 18 -70 8 -107 -16 -32 -22 -38 -24 -43 -10 -4
8 -4 25 -1 36 7 27 -13 61 -28 49 -7 -6 -11 -2 -11 10 0 10 4 16 8 14 11 -7
10 8 -1 25 -5 8 -14 10 -22 6 -9 -6 -11 -3 -6 9 9 22 -2 43 -13 26 -5 -8 -9
-5 -13 9 -3 12 -1 21 5 21 5 0 6 5 3 10 -4 6 -11 8 -16 5 -5 -3 -6 1 -3 9 3 9
-6 23 -25 37 -17 12 -28 26 -25 31 3 4 0 8 -5 8 -6 0 -11 7 -11 16 0 13 -3 14
-14 5 -18 -15 -30 11 -13 29 9 10 8 12 -5 7 -11 -4 -18 -1 -18 7 0 7 -12 18
-26 24 -14 7 -23 16 -20 21 3 5 -1 12 -10 15 -9 3 -12 2 -8 -5 3 -6 -3 -5 -15
3 -12 7 -19 19 -16 27 3 9 0 11 -10 7 -8 -3 -15 -1 -15 5 0 6 -7 9 -15 5 -9
-3 -15 0 -15 8 0 16 -77 49 -92 40 -6 -4 -8 -3 -5 2 12 20 -79 53 -187 68
-113 16 -130 21 -106 36 13 8 12 10 -2 10 -9 0 -19 -4 -22 -8 -3 -5 -24 -7
-47 -6 -23 1 -37 -1 -30 -5 14 -9 -25 -31 -54 -30 -21 1 -137 -29 -120 -31 6
-1 -19 -10 -54 -21 -36 -10 -67 -16 -70 -14 -2 3 2 5 10 5 11 0 11 2 -1 10
-23 15 -29 12 -23 -12 5 -19 3 -21 -8 -10 -15 14 -33 16 -24 3 3 -5 1 -12 -5
-16 -5 -3 -10 -1 -10 4 0 6 -5 11 -11 11 -15 0 -39 -26 -32 -34 6 -6 -15 -10
-44 -9 -7 1 -13 -5 -13 -13 0 -18 -14 -18 -30 1 -7 8 -19 15 -26 15 -8 0 -13
5 -12 11 2 6 -17 25 -42 43 -25 17 -45 38 -45 46 0 8 -7 14 -16 12 -10 -1 -19
6 -22 18 -3 11 -9 20 -14 19 -20 -3 -33 2 -33 14 0 7 -16 19 -35 26 -19 7 -35
17 -35 23 0 5 -8 7 -17 4 -10 -4 -14 -4 -11 0 11 11 -105 65 -129 61 -13 -2
-23 -1 -23 3 0 4 -19 10 -42 14 -33 5 -39 9 -28 17 11 8 5 9 -22 5 -21 -2 -38
-1 -38 5 0 5 -4 9 -10 9 -5 0 -10 -4 -10 -9z m1427 -237 c-3 -3 -12 -4 -19 -1
-8 3 -5 6 6 6 11 1 17 -2 13 -5z m177 -524 c-21 -8 -37 -3 -29 10 3 4 15 6 27
2 21 -5 21 -6 2 -12z"/>
<path d="M6070 10100 c-8 -5 -10 -10 -5 -10 6 0 17 5 25 10 8 5 11 10 5 10 -5
0 -17 -5 -25 -10z"/>
<path d="M5968 10073 c6 -2 18 -2 25 0 6 3 1 5 -13 5 -14 0 -19 -2 -12 -5z"/>
<path d="M5885 10040 c3 -5 8 -10 11 -10 2 0 4 5 4 10 0 6 -5 10 -11 10 -5 0
-7 -4 -4 -10z"/>
<path d="M7011 9514 c0 -11 3 -14 6 -6 3 7 2 16 -1 19 -3 4 -6 -2 -5 -13z"/>
<path d="M6288 9503 c7 -3 16 -2 19 1 4 3 -2 6 -13 5 -11 0 -14 -3 -6 -6z"/>
<path d="M4526 9072 c-3 -2 -20 -6 -38 -8 -67 -8 -134 -28 -165 -51 -18 -13
-33 -21 -33 -18 0 4 -7 -1 -16 -10 -13 -12 -15 -30 -11 -84 3 -38 11 -85 18
-106 12 -33 16 -36 43 -31 15 3 37 6 47 6 22 0 101 68 94 81 -6 9 66 43 129
60 51 15 130 12 170 -5 43 -19 142 -118 167 -169 12 -23 32 -56 45 -73 13 -17
24 -41 24 -53 0 -14 4 -20 12 -15 8 5 9 2 5 -10 -4 -10 -7 -20 -7 -22 0 -2 -6
-4 -14 -4 -9 0 -13 -9 -11 -26 2 -21 -1 -25 -16 -21 -11 3 -19 2 -19 -2 0 -4
-57 -7 -127 -7 -125 1 -130 2 -193 35 -39 19 -89 58 -124 94 l-60 60 -55 -2
c-31 -2 -57 -4 -59 -5 -1 -2 1 -17 4 -35 4 -20 10 -28 14 -21 5 8 10 9 14 2 3
-6 2 -13 -4 -17 -6 -3 -1 -20 13 -41 16 -25 27 -33 42 -30 18 4 18 3 3 -7 -14
-10 -12 -15 20 -54 44 -54 71 -71 84 -52 7 11 8 9 6 -6 -3 -15 8 -27 46 -47
27 -16 57 -28 66 -28 9 0 20 -4 25 -9 35 -30 237 -35 281 -6 14 9 28 14 31 12
10 -10 64 16 59 28 -3 8 2 11 15 8 10 -3 19 -1 19 4 0 11 3 11 76 19 48 5 53
4 80 -26 60 -65 98 -99 104 -95 4 2 13 -6 20 -20 8 -15 18 -21 28 -18 9 4 13
2 9 -4 -4 -6 10 -15 32 -22 47 -14 151 -15 151 -1 0 6 9 10 20 10 18 0 20 -7
20 -63 0 -55 -4 -70 -29 -104 -16 -22 -36 -54 -45 -72 -27 -52 -199 -230 -257
-266 -178 -112 -260 -157 -309 -171 -30 -8 -68 -21 -85 -27 -52 -19 -218 -2
-308 32 l-27 11 0 -71 c0 -66 -1 -70 -20 -64 -11 4 -20 2 -20 -4 0 -6 12 -13
28 -17 15 -3 45 -11 67 -16 67 -17 181 -15 202 4 19 16 86 38 186 59 36 8 75
25 100 44 23 18 70 50 104 71 132 83 209 138 222 158 8 12 47 55 87 96 39 41
79 91 89 110 10 19 31 52 47 72 44 56 62 119 54 192 -19 182 -28 212 -64 198
-11 -4 -13 -1 -8 9 5 8 -4 0 -18 -18 -27 -32 -81 -50 -136 -44 -53 6 -163 93
-186 149 -13 29 -13 35 0 48 13 12 13 19 3 35 -10 18 -9 23 13 40 14 10 30 23
37 29 7 5 17 10 23 10 5 0 10 4 10 9 0 5 11 12 25 15 14 4 25 11 25 17 0 6 9
8 23 4 20 -7 21 -6 4 6 -20 16 -30 14 94 20 37 2 65 7 62 12 -7 12 22 8 54 -8
17 -9 34 -23 37 -31 5 -14 9 -14 22 -3 20 17 34 53 40 104 3 22 9 55 14 74 5
19 8 36 6 38 -2 2 -27 6 -55 10 -53 6 -135 -12 -125 -28 3 -5 -1 -6 -9 -4 -12
5 -78 -20 -202 -75 -90 -40 -142 -50 -203 -38 -31 7 -63 18 -70 25 -8 7 -30
26 -50 41 -20 15 -47 37 -60 50 -13 12 -26 22 -30 22 -4 0 -24 15 -43 33 -19
17 -43 34 -54 35 -11 2 -44 17 -73 34 -74 41 -139 58 -211 57 -33 -1 -62 -4
-65 -7z m-132 -483 c-3 -6 0 -15 7 -20 9 -6 10 -9 2 -9 -15 0 -26 17 -18 30 3
6 8 10 11 10 3 0 2 -5 -2 -11z"/>
<path d="M4435 8279 c-22 -5 -50 -11 -62 -14 -13 -3 -23 -10 -23 -16 0 -6 5
-7 10 -4 6 3 10 1 10 -6 0 -8 11 -10 34 -6 23 4 39 1 46 -8 7 -8 22 -17 33
-21 12 -3 36 -17 54 -30 17 -13 38 -24 47 -24 8 0 21 -6 28 -12 7 -7 40 -22
73 -33 33 -10 67 -22 75 -26 57 -29 286 -70 349 -64 13 1 32 -6 42 -16 17 -17
16 -23 -3 -20 -5 0 -8 -3 -8 -9 0 -5 -5 -10 -10 -10 -11 0 -68 -60 -84 -89 -8
-13 -7 -14 6 -4 8 7 17 11 20 8 3 -3 11 1 18 10 7 8 17 15 22 15 5 0 33 20 62
44 34 30 68 49 101 57 67 16 76 26 29 34 -22 3 -66 10 -99 15 -467 75 -481 78
-557 118 -40 22 -86 42 -103 46 -42 11 -58 25 -44 42 12 15 4 35 -14 33 -7 -1
-30 -5 -52 -10z"/>
<path d="M4438 8169 c-2 -24 2 -55 9 -69 6 -14 21 -56 33 -95 31 -98 43 -115
80 -111 43 5 45 10 17 48 -38 49 -93 158 -101 198 -4 19 -13 43 -21 54 -13 17
-14 14 -17 -25z"/>
<path d="M4708 7813 c7 -3 16 -2 19 1 4 3 -2 6 -13 5 -11 0 -14 -3 -6 -6z"/>
<path d="M4732 7795 c-7 -8 -13 -18 -15 -22 -1 -5 -16 -8 -34 -8 -66 0 -45
-31 47 -68 52 -22 201 -27 223 -8 8 6 16 8 19 5 6 -6 58 53 58 66 0 9 -21 17
-58 25 -11 2 -38 -1 -61 -6 -23 -5 -48 -6 -54 -2 -11 7 -94 32 -107 32 -3 0
-11 -6 -18 -14z"/>
<path d="M3535 7590 c-11 -4 -23 -6 -27 -3 -4 2 -42 -8 -85 -22 -73 -25 -158
-84 -158 -110 0 -5 -8 -13 -18 -17 -10 -4 -15 -12 -12 -18 3 -5 2 -10 -4 -10
-15 0 -53 -79 -47 -96 3 -8 2 -14 -3 -14 -8 0 -25 -56 -22 -72 0 -5 -3 -8 -9
-8 -5 0 -10 -13 -10 -29 0 -17 -4 -32 -9 -36 -5 -3 -8 -38 -6 -78 1 -39 0 -76
-3 -81 -11 -19 -22 -197 -12 -191 5 3 5 -8 0 -24 -6 -22 -4 -33 6 -41 17 -15
23 -50 28 -157 2 -48 9 -90 17 -99 7 -9 9 -18 3 -22 -11 -9 -18 -62 -7 -62 7
0 14 -38 17 -97 0 -13 5 -23 9 -23 5 0 6 -8 3 -18 -4 -10 1 -40 10 -68 8 -27
24 -83 34 -124 11 -41 24 -76 30 -78 5 -2 10 -16 10 -32 0 -16 7 -35 15 -44 8
-8 15 -20 15 -26 0 -12 52 -140 70 -172 6 -10 10 -25 10 -33 0 -10 5 -13 12
-9 7 5 9 1 6 -13 -3 -11 1 -28 9 -39 20 -25 64 -126 59 -131 -2 -3 3 -13 12
-24 9 -11 15 -22 14 -26 -2 -3 0 -9 5 -12 12 -9 43 -71 43 -86 0 -8 10 -23 22
-35 12 -11 19 -20 15 -20 -4 0 -1 -13 8 -30 9 -16 20 -30 25 -30 6 0 10 -7 10
-15 0 -8 5 -15 11 -15 5 0 7 -4 4 -10 -3 -5 -2 -10 3 -10 5 0 25 -26 45 -58
20 -32 62 -92 94 -134 32 -42 65 -86 73 -99 8 -12 23 -31 33 -41 9 -10 17 -20
17 -24 0 -3 13 -19 30 -37 16 -18 30 -37 30 -42 0 -6 11 -24 25 -40 14 -17 35
-44 47 -62 113 -160 158 -226 158 -234 0 -13 54 -122 68 -137 6 -7 12 -18 12
-23 0 -23 119 -196 273 -397 82 -108 337 -382 355 -382 4 0 13 -13 20 -30 8
-17 19 -30 26 -30 20 0 93 -88 99 -118 3 -15 11 -49 17 -77 15 -70 38 -300 37
-360 l-2 -50 47 -7 c26 -3 91 -9 145 -13 54 -3 134 -11 178 -17 44 -6 95 -11
113 -12 17 -1 32 -4 32 -8 0 -4 10 -5 23 -3 21 4 22 2 23 -76 1 -54 6 -84 14
-89 7 -4 10 -15 7 -23 -7 -18 15 -51 62 -92 19 -16 40 -36 47 -42 39 -40 117
-39 146 1 14 19 15 31 7 58 -11 40 -52 65 -157 94 -44 12 -71 26 -88 47 -29
34 -30 53 -7 118 15 41 22 49 43 49 33 0 70 -24 149 -95 56 -50 68 -56 94 -51
35 7 73 39 80 67 7 28 -42 89 -123 150 -57 43 -60 46 -60 92 0 77 81 113 146
65 39 -29 49 -40 102 -110 24 -31 55 -64 69 -73 24 -16 29 -16 58 -2 59 28 50
74 -31 162 -54 57 -68 88 -54 116 16 29 97 29 145 -1 33 -21 45 -38 90 -124
16 -33 35 -61 41 -63 6 -2 17 10 24 26 7 17 17 28 23 24 6 -4 7 4 3 23 -10 38
-56 85 -119 120 -48 27 -60 29 -152 28 -67 -1 -116 -7 -148 -18 -56 -20 -69
-14 -92 41 -8 18 -24 43 -37 56 -13 13 -29 35 -36 51 -6 15 -17 24 -22 21 -6
-4 -9 -3 -8 2 3 13 -38 74 -45 66 -4 -3 -7 3 -7 13 0 11 -8 29 -17 40 -10 10
-28 37 -40 59 -11 22 -31 57 -42 79 -26 45 -114 177 -133 198 -23 24 -74 120
-78 146 -1 4 -7 14 -15 22 -25 29 -85 160 -85 186 0 46 30 146 63 209 18 33
35 62 38 65 4 3 19 29 34 58 15 29 31 55 36 58 5 3 20 29 35 57 14 29 35 70
47 92 29 52 71 158 86 215 7 25 16 58 21 73 15 47 -6 70 -56 62 -22 -3 -70 -7
-105 -10 -181 -11 -244 -17 -250 -27 -4 -7 -9 -6 -14 1 -5 9 -11 9 -22 -1 -20
-16 -30 -44 -58 -153 -12 -49 -32 -112 -44 -140 -11 -27 -31 -85 -43 -127 -25
-85 -43 -98 -72 -53 -22 33 -55 66 -161 160 -147 129 -166 148 -180 183 -8 17
-19 32 -26 32 -8 0 -8 4 -1 13 6 7 6 20 1 32 -9 18 -9 18 -5 -3 2 -12 0 -20
-4 -17 -5 3 -9 31 -9 61 l0 56 197 -2 c320 -5 317 -5 357 33 33 30 37 39 51
137 13 82 15 145 10 282 -6 148 -4 182 8 206 25 48 41 236 27 304 -13 61 -25
78 -44 59 -6 -6 -25 -10 -41 -10 -24 1 -26 3 -8 6 12 2 22 9 22 15 0 5 -7 7
-16 4 -22 -9 -85 4 -78 15 3 5 -2 9 -10 9 -8 0 -21 6 -28 13 -7 7 -21 16 -30
20 -10 3 -18 13 -18 21 0 7 -7 27 -15 42 -19 37 -19 91 1 129 14 28 14 31 -6
47 -12 10 -34 18 -49 18 -14 0 -61 9 -105 20 -43 11 -89 20 -102 20 -14 0 -24
6 -24 15 0 8 -10 20 -22 26 -44 23 -95 116 -100 182 -4 45 -18 79 -18 43 0 -9
-4 -14 -10 -11 -5 3 -10 20 -10 38 0 29 1 30 15 11 14 -18 14 -17 10 16 -4 25
-3 29 3 15 8 -17 11 -15 22 20 7 22 15 45 19 50 9 15 8 55 -2 55 -4 0 -5 5 -2
10 3 6 1 10 -5 10 -6 0 -8 5 -5 10 3 6 1 10 -4 10 -6 0 -11 7 -11 15 0 17 -49
44 -68 38 -7 -3 -19 1 -27 7 -12 10 -15 10 -15 1 0 -8 -8 -10 -21 -6 -16 5
-19 4 -14 -6 6 -9 4 -11 -8 -6 -9 3 -18 0 -21 -9 -3 -9 -2 -12 5 -9 6 4 8 -2
4 -18 -4 -15 0 -38 10 -58 19 -36 16 -116 -5 -129 -9 -6 -9 -9 -1 -11 7 -3 13
-21 14 -42 1 -20 5 -37 9 -37 7 0 31 -93 33 -132 1 -17 -3 -28 -11 -28 -7 0
-15 -8 -19 -18 -8 -27 -48 -42 -114 -42 -96 0 -161 44 -161 110 0 21 -4 41 -8
44 -5 3 -8 13 -7 23 2 20 36 95 47 103 4 3 -33 16 -82 29 -50 13 -90 27 -90
32 0 5 -9 9 -21 9 -11 0 -17 5 -14 10 3 6 -5 14 -18 19 -14 6 -28 15 -32 21
-3 5 -11 7 -17 4 -7 -4 -8 -2 -4 5 4 6 1 14 -8 17 -8 3 -13 11 -10 18 3 7 -2
19 -11 26 -30 25 -20 111 24 203 57 119 71 260 28 292 -7 5 -12 16 -10 23 3 6
0 12 -7 12 -6 0 -8 5 -5 10 3 6 -2 10 -13 10 -10 0 -29 11 -42 25 -13 14 -29
25 -36 25 -7 0 -21 14 -31 31 -21 36 -94 73 -163 84 -71 11 -203 14 -225 5z
m350 -60 c3 -5 1 -10 -4 -10 -6 0 -11 5 -11 10 0 6 2 10 4 10 3 0 8 -4 11 -10z
m-758 -612 c-3 -8 -6 -5 -6 6 -1 11 2 17 5 13 3 -3 4 -12 1 -19z m1554 -5 c13
-16 12 -17 -3 -4 -10 7 -18 15 -18 17 0 8 8 3 21 -13z m-1554 -80 c-3 -10 -5
-4 -5 12 0 17 2 24 5 18 2 -7 2 -21 0 -30z m1583 -43 c0 -5 -2 -10 -4 -10 -3
0 -8 5 -11 10 -3 6 -1 10 4 10 6 0 11 -4 11 -10z m-1583 -32 c-3 -8 -6 -5 -6
6 -1 11 2 17 5 13 3 -3 4 -12 1 -19z m1560 -180 c-3 -8 -6 -5 -6 6 -1 11 2 17
5 13 3 -3 4 -12 1 -19z m-1142 -96 c28 -35 78 -93 113 -129 34 -36 65 -77 69
-91 9 -37 -5 -334 -16 -345 -7 -7 -24 3 -50 26 -22 20 -55 44 -73 53 -18 9
-38 23 -43 31 -6 8 -21 19 -34 26 -54 27 -68 75 -70 250 -1 33 -5 46 -12 41
-8 -5 -10 4 -5 32 4 22 9 75 10 119 2 44 4 84 4 88 3 15 55 -35 107 -101z
m305 -632 c0 -5 5 -10 10 -10 6 0 51 -40 99 -90 49 -49 93 -90 99 -90 21 0 39
-85 36 -170 -1 -47 -3 -124 -5 -173 -1 -48 -5 -90 -9 -92 -4 -3 -15 11 -25 31
-13 29 -19 33 -31 23 -11 -9 -14 -8 -15 2 -1 8 -2 21 -3 29 0 8 -11 16 -24 16
-28 2 -31 4 -35 32 -3 22 -33 51 -52 52 -5 0 1 -7 13 -16 41 -28 23 -34 -23
-6 -47 29 -58 43 -25 35 16 -4 19 -2 14 11 -6 15 -17 20 -36 17 -5 0 -8 4 -8
10 0 6 -7 9 -14 6 -23 -9 -15 302 10 381 4 14 24 16 24 2z m1670 -890 c0 -6
-25 -9 -57 -9 -52 1 -54 2 -23 9 53 11 80 11 80 0z"/>
<path d="M3945 7500 c3 -5 11 -10 16 -10 6 0 7 5 4 10 -3 6 -11 10 -16 10 -6
0 -7 -4 -4 -10z"/>
<path d="M7866 7448 c-14 -35 -47 -115 -74 -178 l-48 -115 -97 -7 c-53 -5
-141 -11 -194 -15 l-97 -8 134 -114 c74 -63 141 -119 148 -126 11 -10 6 -43
-32 -188 -25 -97 -46 -181 -46 -188 0 -12 3 -11 197 109 l132 81 156 -101 c86
-55 159 -97 162 -94 4 4 -13 87 -37 186 l-44 179 22 18 c12 10 80 65 151 123
71 58 128 106 127 107 -1 1 -87 9 -190 17 -104 8 -192 18 -196 23 -4 4 -38 86
-75 181 -37 94 -68 172 -70 172 -1 0 -14 -28 -29 -62z"/>
<path d="M4015 7440 c3 -5 11 -10 16 -10 6 0 7 5 4 10 -3 6 -11 10 -16 10 -6
0 -7 -4 -4 -10z"/>
<path d="M4470 7440 c0 -5 7 -10 16 -10 8 0 12 5 9 10 -3 6 -10 10 -16 10 -5
0 -9 -4 -9 -10z"/>
<path d="M3122 6640 c0 -14 2 -19 5 -12 2 6 2 18 0 25 -3 6 -5 1 -5 -13z"/>
<path d="M1147 5682 c-37 -92 -71 -172 -75 -179 -7 -11 -253 -33 -365 -33
l-39 0 149 -126 c81 -70 149 -132 151 -139 2 -10 -77 -329 -93 -372 -2 -6 69
34 157 89 89 55 167 102 174 105 6 2 69 -33 140 -79 71 -46 145 -94 165 -106
l36 -22 -43 183 c-25 100 -46 187 -48 192 -2 6 66 66 150 135 84 68 152 125
151 126 -1 1 -72 7 -157 13 -85 6 -173 14 -196 17 l-41 5 -69 179 c-38 99 -71
180 -74 180 -3 0 -36 -76 -73 -168z"/>
<path d="M6064 4433 c3 -16 8 -55 12 -88 9 -88 30 -162 54 -192 12 -15 61 -51
111 -79 l89 -53 0 29 c0 16 -4 31 -9 34 -5 4 -12 28 -16 55 -9 64 -26 118 -50
156 -28 46 -156 157 -172 151 -8 -3 -11 -1 -8 4 3 6 1 10 -5 10 -7 0 -10 -10
-6 -27z"/>
<path d="M6071 4003 c6 -21 14 -47 19 -58 5 -11 12 -35 16 -54 9 -48 32 -101
44 -101 6 0 10 -7 10 -15 0 -8 4 -15 9 -15 4 0 50 -29 101 -65 l92 -65 -7 32
c-4 18 -16 51 -26 72 -10 22 -21 55 -25 75 -3 20 -12 46 -20 58 -19 31 -198
173 -218 173 -2 0 0 -17 5 -37z"/>
<path d="M7005 3384 c-99 -21 -162 -38 -175 -49 -8 -7 -29 -20 -47 -29 -18 -9
-45 -28 -60 -42 -15 -14 -41 -38 -58 -53 -78 -70 -156 -178 -137 -190 11 -7
32 -90 32 -123 0 -25 56 -88 79 -88 7 0 10 -4 7 -8 -8 -13 61 -54 86 -50 19 2
24 10 26 39 3 30 -2 41 -25 59 -109 86 -141 121 -148 165 -5 34 -2 52 12 75 9
16 21 30 25 30 4 0 8 6 8 13 0 6 12 17 25 24 22 10 29 8 50 -11 14 -13 25 -27
25 -31 0 -5 14 -30 31 -57 31 -49 32 -49 73 -43 46 7 86 43 86 77 0 13 -19 39
-44 62 -53 50 -63 78 -41 112 37 56 138 63 178 12 10 -13 23 -30 30 -38 7 -8
23 -42 36 -75 34 -83 50 -92 97 -52 29 25 28 48 -4 83 -10 10 -28 36 -41 57
-20 32 -22 42 -12 64 10 21 16 24 44 18 42 -9 105 -52 121 -84 8 -14 17 -40
20 -58 7 -29 31 -61 40 -52 13 14 -15 102 -42 137 -59 74 -202 125 -297 106z"/>
<path d="M7080 2982 c-19 -9 -43 -25 -52 -34 -10 -10 -22 -18 -28 -18 -17 0
-88 -104 -95 -140 -5 -27 -2 -41 13 -58 11 -12 24 -22 31 -22 6 0 11 -4 11 -8
0 -11 168 -52 240 -59 122 -12 422 -140 463 -198 11 -16 41 -54 65 -84 59 -73
92 -142 92 -190 0 -35 3 -40 38 -55 127 -55 299 -184 335 -254 8 -15 28 -52
44 -82 29 -52 51 -134 51 -190 1 -42 -20 -153 -34 -185 -7 -16 -19 -50 -27
-75 -20 -61 -123 -287 -137 -300 -3 -3 -14 -22 -25 -43 -11 -20 -29 -47 -40
-60 -12 -12 -31 -44 -44 -70 -13 -27 -32 -54 -42 -60 -11 -7 -19 -20 -19 -30
0 -10 -7 -20 -15 -23 -24 -10 -6 -24 30 -24 19 0 37 -4 40 -10 3 -5 12 -10 18
-9 8 0 8 2 -1 6 -17 7 4 33 27 32 12 0 11 -2 -4 -9 -17 -7 -16 -9 10 -10 29
-2 30 -2 5 -10 -35 -10 161 -4 235 8 33 5 76 16 95 23 54 21 221 127 242 155
11 13 25 24 32 24 17 0 88 99 80 112 -4 6 -3 8 3 5 6 -4 24 13 40 36 117 162
192 476 181 749 -5 115 -29 181 -96 268 -46 58 -266 240 -291 240 -11 0 -81
79 -81 92 0 6 -6 8 -14 5 -8 -3 -13 1 -12 11 1 10 -6 16 -16 16 -10 -1 -16 2
-13 6 5 9 0 15 -59 68 -20 18 -36 29 -36 25 0 -5 -7 0 -15 11 -8 11 -19 15
-27 10 -7 -4 -10 -4 -6 1 5 5 0 14 -10 20 -33 24 -339 185 -350 185 -6 0 -35
14 -64 31 -31 18 -71 33 -98 35 -130 11 -385 61 -462 90 -24 9 -53 17 -65 18
-11 0 -19 4 -17 7 3 6 -73 39 -86 39 -3 0 -21 -8 -40 -18z m1037 -2268 c-3 -3
-12 -4 -19 -1 -8 3 -5 6 6 6 11 1 17 -2 13 -5z"/>
<path d="M5040 2727 c-3 -3 -59 -14 -125 -26 -66 -11 -142 -27 -170 -36 -27
-8 -62 -15 -77 -15 -49 0 -38 -17 20 -30 31 -6 81 -23 110 -36 29 -13 56 -24
61 -24 5 0 30 -10 56 -21 73 -32 118 -25 434 68 46 14 79 28 75 32 -16 13
-183 55 -304 76 -14 3 -36 7 -50 11 -14 3 -27 3 -30 1z"/>
<path d="M5495 2513 c-42 -6 -307 -72 -313 -78 -3 -2 8 -9 24 -15 16 -5 42
-16 57 -25 16 -8 34 -15 41 -15 7 0 52 -13 99 -29 l86 -29 95 32 94 32 -52 65
c-53 66 -65 72 -131 62z"/>
<path d="M4315 1555 c-17 -13 -37 -31 -46 -40 -9 -8 -19 -15 -23 -15 -9 0 -70
-45 -106 -77 -14 -13 -28 -23 -33 -23 -4 0 -26 -12 -48 -26 -60 -38 -271 -144
-286 -144 -9 0 -13 15 -13 43 0 23 -7 51 -15 61 -8 11 -15 30 -15 42 0 44 -85
86 -201 99 -55 6 -197 -14 -244 -35 -11 -5 -35 -12 -53 -15 -19 -4 -30 -11
-25 -18 4 -6 0 -8 -10 -4 -22 8 -49 -2 -41 -15 4 -6 -1 -8 -14 -4 -11 4 -23 2
-26 -3 -4 -5 -26 -20 -51 -32 -24 -12 -42 -26 -39 -30 3 -5 -1 -6 -9 -3 -8 3
-20 -3 -28 -12 -13 -16 -11 -17 13 -12 16 3 25 1 22 -4 -4 -6 -19 -8 -35 -6
-15 3 -26 1 -23 -4 3 -4 -2 -8 -11 -8 -9 0 -14 -4 -11 -9 3 -5 -6 -12 -19 -15
-14 -4 -23 -11 -20 -16 3 -5 -6 -12 -20 -16 -13 -3 -22 -10 -19 -16 3 -5 -2
-8 -12 -6 -11 2 -18 -2 -17 -9 2 -7 -4 -13 -12 -13 -8 0 -15 -5 -15 -11 0 -5
-4 -7 -10 -4 -5 3 -10 2 -10 -3 0 -11 -117 -72 -139 -72 -10 0 -21 -4 -27 -10
-5 -5 -24 -10 -41 -12 -18 -1 -30 -4 -27 -7 5 -5 -74 -29 -116 -36 -14 -2 -49
-10 -78 -18 -29 -9 -49 -11 -46 -5 4 6 -1 8 -12 4 -45 -14 -154 -35 -209 -41
-75 -8 -97 -14 -90 -25 3 -4 -4 -6 -15 -3 -15 4 -20 0 -20 -14 0 -10 -6 -25
-12 -32 -11 -10 -8 -10 13 -3 22 9 25 8 24 -10 -1 -11 -8 -24 -16 -29 -11 -7
-11 -9 4 -9 10 0 15 -4 12 -10 -3 -5 3 -10 15 -10 13 0 19 -4 14 -11 -4 -8 1
-9 16 -4 14 4 20 3 16 -3 -3 -5 2 -16 11 -23 12 -10 14 -10 9 -1 -4 6 -3 12 2
12 6 0 12 -6 15 -14 3 -8 24 -22 46 -32 23 -10 41 -22 41 -27 0 -4 9 -6 19 -2
11 3 22 1 25 -4 4 -6 14 -7 23 -4 13 5 15 2 10 -11 -6 -15 -3 -17 12 -13 11 3
28 -3 39 -13 32 -30 76 -48 104 -43 20 4 29 0 38 -16 6 -12 15 -19 20 -16 5 3
11 1 15 -5 3 -5 15 -10 25 -10 10 0 20 -5 22 -11 4 -12 49 -19 58 -9 3 3 21 3
40 -1 l35 -6 -35 -3 -35 -2 35 -10 c38 -10 59 -13 165 -24 39 -3 75 -11 82
-16 7 -5 36 -8 65 -6 45 3 57 0 76 -19 13 -13 18 -23 12 -23 -6 0 -4 -7 5 -17
10 -10 39 -18 73 -20 32 -2 61 -8 67 -14 13 -13 28 -11 19 3 -5 8 5 9 34 5 23
-3 42 -1 42 4 0 5 21 9 46 9 27 0 43 4 39 10 -4 6 5 10 20 10 16 0 24 4 20 11
-4 6 -1 9 6 7 23 -5 75 33 93 67 22 41 17 50 -29 53 -20 2 -56 9 -78 17 -23 8
-51 15 -63 15 -11 0 -29 6 -39 14 -19 13 -18 15 8 47 15 19 43 58 63 87 20 28
40 52 45 52 5 0 9 6 9 13 0 13 76 89 141 143 51 42 168 92 354 151 81 26 205
82 205 92 0 3 35 43 78 88 43 44 84 94 92 110 8 15 19 35 25 43 14 18 49 129
43 135 -2 2 -17 -7 -33 -20z m-1244 -242 c13 -16 12 -17 -3 -4 -17 13 -22 21
-14 21 2 0 10 -8 17 -17z m-1008 -380 c-7 -2 -19 -2 -25 0 -7 3 -2 5 12 5 14
0 19 -2 13 -5z m342 -295 c14 1 16 -1 6 -7 -16 -10 -49 -3 -58 12 -4 7 0 8 13
2 10 -4 28 -7 39 -7z m1095 -92 c0 -3 -4 -8 -10 -11 -5 -3 -10 -1 -10 4 0 6 5
11 10 11 6 0 10 -2 10 -4z m-500 -25 c-8 -5 -26 -12 -40 -16 -22 -7 -23 -6
-11 9 7 9 25 16 40 16 19 -1 22 -3 11 -9z m-93 -27 c-3 -3 -12 -4 -19 -1 -8 3
-5 6 6 6 11 1 17 -2 13 -5z"/>
<path d="M1944 851 c3 -5 15 -7 26 -4 28 7 25 13 -6 13 -14 0 -23 -4 -20 -9z"/>
<path d="M3288 393 c6 -2 18 -2 25 0 6 3 1 5 -13 5 -14 0 -19 -2 -12 -5z"/>
</g>
</svg>
