<?xml version="1.0" standalone="no"?>
<!DOCTYPE svg PUBLIC "-//W3C//DTD SVG 20010904//EN"
 "http://www.w3.org/TR/2001/REC-SVG-20010904/DTD/svg10.dtd">
<svg version="1.0" xmlns="http://www.w3.org/2000/svg"
 width="1120.000000pt" height="1103.000000pt" viewBox="0 0 1120.000000 1103.000000"
 preserveAspectRatio="xMidYMid meet">
<metadata>
Created by potrace 1.11, written by Peter Selinger 2001-2013
</metadata>
<g transform="translate(0.000000,1103.000000) scale(0.100000,-0.100000)"
fill="#000000" stroke="none">
<path d="M3245 10606 c-44 -7 -89 -18 -100 -23 -11 -6 -69 -25 -130 -42 -106
-30 -295 -115 -295 -133 0 -4 -7 -8 -16 -8 -23 0 -222 -98 -245 -121 -19 -19
-20 -19 -47 0 -28 20 -112 35 -112 21 0 -5 -13 -11 -29 -15 -50 -11 -100 -64
-110 -116 -9 -53 -5 -107 9 -124 5 -7 8 -14 5 -17 -3 -2 11 -19 30 -38 30 -29
41 -33 87 -33 86 0 156 45 196 124 12 24 25 35 42 36 14 1 70 6 125 12 126 13
259 14 299 2 108 -32 149 -48 216 -83 109 -58 180 -114 314 -246 121 -120 279
-296 271 -304 -2 -2 -16 -60 -31 -128 -25 -119 -26 -132 -21 -339 6 -223 13
-268 61 -411 42 -128 47 -141 99 -280 13 -36 34 -110 47 -165 12 -55 26 -109
30 -120 27 -63 41 -264 27 -393 l-10 -102 -49 6 c-30 4 -48 3 -48 -3 0 -9 16
-15 81 -29 8 -2 28 1 45 5 16 5 23 10 15 10 -11 1 -12 13 -7 60 11 100 22 134
33 103 3 -6 10 -9 15 -5 8 4 9 -20 5 -81 -6 -82 -5 -87 11 -74 9 7 20 17 24
22 5 7 123 -43 228 -99 14 -7 40 -16 58 -20 17 -3 32 -11 32 -17 0 -6 13 -8
33 -4 48 10 60 10 88 3 26 -7 26 -6 28 60 1 37 4 70 6 73 2 4 -14 17 -37 30
-23 13 -38 17 -33 10 6 -9 3 -10 -14 -1 -11 7 -21 14 -21 17 0 3 6 2 13 -1 6
-4 -4 6 -23 21 -19 16 -62 53 -94 84 -33 30 -56 48 -51 40 5 -8 -12 3 -36 25
-25 22 -44 43 -42 47 2 4 -1 9 -7 13 -5 3 -15 16 -21 28 -6 12 2 6 18 -13 50
-62 82 -95 83 -85 0 6 -17 28 -38 50 -21 22 -44 50 -51 62 -6 13 -17 22 -23
20 -6 -1 -13 5 -15 13 -4 13 -3 13 6 0 9 -13 11 -13 11 1 0 23 -26 44 -34 27
-3 -7 -3 -2 0 11 3 13 2 21 -3 18 -5 -3 -9 7 -8 21 0 17 -5 26 -13 24 -8 -1
-11 2 -8 7 6 10 1 37 -29 141 -21 75 -29 200 -16 258 6 26 18 109 27 185 8 76
27 182 41 235 13 53 30 126 37 162 7 36 18 76 24 90 6 14 18 61 27 105 18 85
35 135 47 135 5 0 48 -18 97 -40 49 -22 92 -40 95 -40 4 0 31 -11 60 -25 29
-14 67 -28 84 -31 18 -4 35 -11 38 -15 3 -5 17 -9 31 -9 15 0 40 -4 57 -9 69
-21 145 -40 221 -56 44 -9 97 -21 119 -26 31 -9 106 -16 207 -21 34 -2 59 3
59 11 0 5 -9 11 -20 13 -15 2 -17 7 -10 18 8 12 12 12 18 2 13 -20 30 6 37 58
3 25 8 59 10 75 4 22 2 26 -5 15 -8 -12 -10 -11 -10 8 0 15 4 21 11 16 17 -10
8 249 -10 270 -7 9 -10 23 -7 32 12 32 -69 238 -154 392 -35 63 -147 173 -215
212 -33 19 -61 37 -63 42 -2 4 -8 8 -12 8 -5 0 -29 14 -53 30 -26 17 -58 30
-76 30 -30 0 -71 29 -71 50 0 6 -32 10 -77 10 -104 0 -195 -27 -361 -107 -80
-39 -72 -41 -144 30 -21 20 -43 37 -48 37 -6 0 -10 4 -10 9 0 5 -21 23 -47 40
-27 17 -68 44 -93 61 -87 58 -210 116 -340 160 -53 18 -253 21 -345 6z m720
-226 c3 -5 2 -10 -4 -10 -5 0 -13 5 -16 10 -3 6 -2 10 4 10 5 0 13 -4 16 -10z
m360 -2640 c3 -6 -1 -7 -9 -4 -18 7 -21 14 -7 14 6 0 13 -4 16 -10z m105 -102
c0 -4 -3 -8 -6 -8 -6 0 -84 81 -84 88 0 1 20 -14 45 -35 25 -20 45 -41 45 -45z"/>
<path d="M4820 7512 c-17 -14 -23 -30 -25 -75 -2 -54 -1 -58 31 -82 39 -30 84
-34 186 -17 121 21 341 -23 431 -85 48 -33 73 -81 82 -156 10 -76 -1 -138 -31
-182 -29 -43 -20 -66 22 -59 14 3 23 1 20 -5 -3 -5 5 -12 18 -15 36 -9 64
-113 36 -131 -5 -3 -10 -15 -10 -26 0 -11 -10 -24 -22 -29 -14 -5 -17 -9 -8
-10 30 -2 -23 -30 -54 -29 l-31 1 33 9 c17 5 32 12 32 15 0 4 -6 4 -14 1 -26
-10 -120 32 -137 61 -13 24 -13 32 -2 60 8 19 9 31 3 27 -20 -12 -10 24 11 38
30 21 4 33 -27 13 -18 -12 -29 -14 -43 -6 -11 5 -29 10 -40 10 -26 0 -30 8
-41 76 -5 31 -15 62 -21 70 -18 22 -67 17 -95 -11 -24 -24 -24 -26 -9 -62 9
-21 31 -54 49 -73 46 -49 92 -119 128 -196 29 -63 30 -67 18 -127 -6 -34 -18
-72 -26 -84 -26 -41 -18 -62 29 -75 50 -13 98 -70 122 -146 19 -58 12 -83 -40
-140 l-35 -39 16 -44 c13 -35 15 -66 10 -149 -8 -129 -10 -144 -16 -150 -3 -3
-11 -22 -18 -43 -10 -28 -12 -77 -7 -195 6 -150 3 -187 -26 -384 -7 -48 -11
-89 -8 -91 2 -2 40 0 84 4 392 34 405 34 405 -8 0 -30 -17 -95 -36 -140 -8
-17 -14 -38 -14 -46 0 -9 -4 -19 -10 -22 -5 -3 -10 -17 -10 -29 0 -13 -7 -29
-15 -36 -8 -7 -15 -19 -15 -27 0 -22 -88 -181 -134 -243 l-42 -55 25 -45 c67
-124 201 -329 265 -403 39 -45 87 -103 106 -127 161 -208 402 -465 517 -553
23 -18 49 -44 57 -59 9 -15 25 -30 36 -33 11 -4 20 -11 20 -16 0 -5 5 -9 10
-9 6 0 10 5 10 10 0 6 26 34 57 63 31 29 67 62 80 74 13 12 23 20 23 17 0 -3
29 16 65 41 36 25 69 45 75 45 16 0 12 20 -9 38 -10 10 -29 37 -42 62 -13 25
-27 47 -30 50 -22 20 -179 358 -279 600 -71 174 -93 219 -167 350 -101 176
-159 257 -259 355 -50 50 -96 100 -102 111 -15 28 -39 135 -62 278 -11 67 -22
130 -26 141 -4 17 8 29 68 68 40 25 87 59 103 74 44 40 95 108 95 126 0 9 4
18 9 22 15 9 61 115 81 188 11 38 22 106 26 151 6 74 4 89 -15 128 -20 39 -27
45 -74 56 -83 19 -250 105 -300 154 -47 46 -102 121 -131 178 -25 50 -45 175
-44 277 0 48 -4 106 -10 128 -6 22 -14 69 -18 105 -11 104 -71 189 -211 298
-29 22 -67 43 -85 47 -18 4 -58 15 -88 25 -31 10 -124 23 -215 30 -88 7 -166
17 -172 23 -7 5 -13 18 -13 28 0 19 -33 59 -49 59 -5 0 -19 -8 -31 -18z m575
-872 c10 -11 14 -20 9 -20 -12 1 -44 25 -44 34 0 12 17 6 35 -14z m703 -2186
c53 -40 149 -131 173 -163 9 -12 22 -55 29 -97 7 -41 17 -77 21 -80 4 -2 11
-25 15 -49 3 -25 10 -48 15 -51 5 -3 7 -10 3 -15 -4 -6 -15 -3 -28 9 -11 10
-57 41 -101 67 -123 74 -128 83 -155 260 -10 66 -21 128 -25 138 -10 25 1 21
53 -19z m54 -461 c101 -73 145 -121 154 -170 4 -21 10 -43 15 -48 19 -25 56
-144 45 -148 -14 -5 -192 117 -223 153 -12 14 -29 50 -38 80 -8 30 -23 80 -32
110 -8 30 -18 61 -20 68 -10 25 22 11 99 -45z"/>
<path d="M7866 7448 c-14 -35 -47 -115 -74 -178 l-48 -115 -97 -7 c-53 -5
-141 -11 -194 -15 l-97 -8 134 -114 c74 -63 141 -119 148 -126 11 -10 6 -43
-32 -188 -25 -97 -46 -181 -46 -188 0 -12 3 -11 197 109 l132 81 156 -101 c86
-55 159 -97 162 -94 4 4 -13 87 -37 186 l-44 179 22 18 c12 10 80 65 151 123
71 58 128 106 127 107 -1 1 -87 9 -190 17 -104 8 -192 18 -196 23 -4 4 -38 86
-75 181 -37 94 -68 172 -70 172 -1 0 -14 -28 -29 -62z"/>
<path d="M3445 6368 c9 -266 9 -266 70 -306 28 -19 64 -44 80 -57 17 -13 48
-38 70 -55 l40 -32 7 54 c3 29 6 106 7 170 l1 118 -57 60 c-31 33 -66 73 -77
89 -49 68 -122 150 -134 150 -10 1 -12 -37 -7 -191z"/>
<path d="M5397 6173 c-3 -16 -8 -38 -12 -50 -5 -14 -3 -23 4 -23 5 0 8 6 5 14
-3 9 3 20 15 28 23 14 29 58 7 58 -7 0 -16 -12 -19 -27z"/>
<path d="M1147 5682 c-37 -92 -71 -172 -75 -179 -7 -11 -253 -33 -365 -33
l-39 0 149 -126 c81 -70 149 -132 151 -139 2 -6 -18 -90 -43 -185 -25 -96 -44
-177 -43 -182 2 -4 73 36 158 88 85 53 160 98 166 101 6 2 82 -42 168 -97 87
-56 160 -99 163 -96 3 3 -14 88 -39 189 l-44 183 152 124 c84 69 152 125 151
126 -1 1 -72 7 -157 13 -85 6 -173 14 -196 17 l-41 5 -69 179 c-38 99 -71 180
-74 180 -3 0 -36 -76 -73 -168z"/>
<path d="M3826 5808 c-4 -18 -9 -94 -13 -169 l-6 -136 54 -41 c30 -22 88 -72
129 -111 l75 -71 8 73 c5 39 6 117 3 172 l-4 100 -49 43 c-26 24 -73 67 -103
96 -86 82 -86 82 -94 44z"/>
<path d="M4720 4986 c0 0 15 -41 33 -89 38 -99 36 -97 138 -187 41 -36 111
-102 157 -147 45 -46 86 -83 90 -83 5 0 17 28 27 63 10 34 29 87 42 117 14 30
37 106 53 168 16 62 32 117 35 123 4 5 1 16 -5 24 -10 12 -59 15 -291 13 -154
0 -279 -1 -279 -2z"/>
<path d="M3810 4913 c0 -6 11 -41 26 -79 53 -145 78 -240 79 -304 1 -41 8 -78
20 -99 9 -19 21 -73 26 -120 5 -47 11 -100 15 -116 7 -36 -18 -185 -40 -237
-18 -41 -107 -135 -211 -222 -38 -31 -90 -75 -115 -96 -25 -22 -79 -67 -120
-102 -196 -163 -360 -362 -423 -510 -6 -16 -15 -28 -19 -28 -4 0 -8 -11 -8
-24 0 -14 -4 -27 -9 -31 -17 -10 -51 -129 -72 -246 -23 -132 -27 -320 -9 -454
12 -88 59 -275 78 -311 18 -33 42 -104 42 -123 0 -11 11 -32 24 -48 13 -16 40
-55 59 -88 19 -33 66 -91 104 -129 l68 -69 65 -3 c36 -3 92 1 125 7 60 10 61
10 145 -32 108 -53 130 -78 126 -142 -2 -40 0 -47 13 -41 9 4 35 10 58 14 26
4 56 19 81 41 83 71 107 89 123 89 9 0 19 8 21 18 3 10 23 24 46 31 23 8 39
18 36 22 -6 10 51 41 60 32 3 -3 30 17 60 45 84 80 105 70 82 -39 -15 -71 -31
-109 -46 -109 -6 0 -10 -7 -10 -15 0 -8 -11 -25 -25 -37 -14 -12 -25 -25 -25
-29 0 -8 -123 -136 -151 -157 -17 -13 -219 -86 -339 -124 -76 -23 -145 -58
-215 -108 -75 -53 -96 -76 -165 -185 -35 -55 -70 -105 -78 -112 -13 -11 -11
-14 13 -23 16 -6 34 -9 41 -6 7 3 48 -8 91 -23 60 -21 78 -32 76 -46 -1 -17
10 -18 195 -12 109 4 220 11 247 17 32 7 287 11 715 11 669 0 734 -3 1030 -41
41 -5 152 -12 245 -15 94 -3 181 -8 195 -10 61 -11 421 -25 638 -26 131 0 276
-4 322 -9 115 -12 309 13 395 50 11 5 47 16 79 25 60 17 181 86 171 98 -3 4
-2 5 1 2 10 -7 57 20 83 49 14 14 31 26 40 26 12 0 11 3 -3 13 -16 12 -16 14
-2 26 9 8 16 18 16 23 0 5 10 19 23 32 12 12 31 40 42 61 21 41 38 66 68 97
20 21 161 298 172 338 4 14 13 39 20 55 19 47 33 95 46 163 29 140 -40 317
-167 429 -81 72 -161 126 -222 148 -51 19 -112 70 -112 94 0 12 3 12 12 3 7
-7 16 -12 20 -12 26 0 -15 87 -85 180 -23 30 -49 66 -59 81 -17 27 -26 32
-225 123 -97 44 -140 58 -210 67 -115 15 -220 43 -276 73 -31 16 -44 19 -40
10 4 -12 0 -12 -23 -3 -16 6 -78 15 -139 20 -60 5 -139 14 -175 20 -98 16
-228 18 -234 2 -3 -7 -13 -13 -23 -13 -10 0 -49 -28 -86 -63 -68 -63 -81 -93
-52 -117 13 -11 13 -17 -6 -46 -18 -30 -19 -35 -5 -40 9 -3 16 -10 16 -16 0
-5 7 -16 15 -25 21 -21 7 -35 -58 -62 -29 -12 -65 -29 -80 -37 -33 -18 -80
-20 -118 -6 -20 8 -32 7 -48 -5 -34 -23 -103 -9 -148 30 l-36 31 -108 -37
-109 -38 -147 51 c-82 28 -154 53 -161 56 -25 8 -6 27 38 40 55 16 193 48 277
65 55 10 66 9 88 -5 28 -19 31 -12 10 24 -18 31 -20 151 -3 168 23 23 20 23
-257 52 -49 5 -136 14 -193 20 -56 6 -106 9 -110 6 -4 -2 -66 -7 -137 -11 -72
-4 -170 -13 -220 -20 -56 -9 -94 -10 -99 -4 -14 13 23 38 59 39 41 2 158 23
170 32 19 12 255 8 255 -5 0 -7 4 -6 11 3 18 27 -18 427 -43 474 -6 10 -49 58
-97 105 -48 47 -114 117 -147 155 -32 38 -81 92 -108 120 -26 28 -64 71 -85
96 -20 25 -41 50 -47 55 -6 6 -24 28 -40 50 -39 53 -46 63 -65 83 -9 9 -30 37
-46 62 -17 25 -45 61 -63 80 -33 36 -90 142 -90 166 0 8 -4 14 -9 14 -5 0 -13
10 -17 22 -3 12 -13 28 -20 36 -8 7 -14 22 -14 32 0 31 -18 33 -23 3 l-4 -28
-2 28 c-1 20 -8 30 -27 38 -24 9 -25 11 -11 27 21 23 4 60 -19 41 -11 -9 -14
-8 -14 4 0 8 -3 23 -7 33 -4 12 -3 15 5 10 21 -13 0 27 -40 75 -21 25 -38 49
-38 53 0 4 -19 33 -42 64 -23 31 -66 90 -95 131 -29 40 -53 69 -53 64z m750
-2168 c0 -8 -4 -15 -9 -15 -5 0 -23 -3 -40 -6 -21 -5 -31 -3 -31 6 0 7 6 10
13 7 7 -3 21 1 32 9 24 18 35 18 35 -1z m600 -26 c14 -4 52 -12 85 -18 100
-20 195 -51 195 -65 0 -8 -35 -22 -87 -36 -49 -13 -142 -38 -208 -57 -143 -41
-174 -40 -295 13 -47 20 -118 44 -159 53 -84 19 -101 36 -44 44 21 3 56 10 78
17 161 47 361 70 435 49z m1560 -959 c0 -5 -5 -10 -11 -10 -5 0 -7 5 -4 10 3
6 8 10 11 10 2 0 4 -4 4 -10z m86 -41 c3 -6 17 -8 30 -5 14 4 37 0 55 -10 21
-10 43 -13 69 -9 36 6 37 6 32 -20 -4 -24 -2 -26 17 -20 15 4 23 1 27 -10 9
-22 -14 -45 -25 -26 -6 9 -11 10 -15 2 -13 -20 -26 -12 -27 17 l-2 27 -4 -27
c-4 -29 -17 -36 -28 -18 -4 6 -1 17 5 25 11 13 8 14 -18 9 -17 -3 -32 -1 -36
5 -4 5 -12 8 -19 5 -19 -7 -82 29 -85 49 -3 19 13 23 24 6z m1134 -859 c0 -5
-2 -10 -4 -10 -3 0 -8 5 -11 10 -3 6 -1 10 4 10 6 0 11 -4 11 -10z m-4580
-220 c0 -5 -5 -10 -11 -10 -5 0 -7 5 -4 10 3 6 8 10 11 10 2 0 4 -4 4 -10z"/>
<path d="M4146 4431 c-4 -7 -5 -15 -2 -18 9 -9 19 4 14 18 -4 11 -6 11 -12 0z"/>
<path d="M7150 3287 c0 -7 9 -22 19 -34 56 -60 69 -153 21 -153 -10 0 -34 -7
-53 -15 -20 -8 -41 -15 -46 -15 -8 0 -29 45 -37 78 -1 8 -14 38 -29 68 -29 59
-50 67 -104 40 -54 -28 -63 -61 -20 -70 48 -10 94 -73 85 -118 -13 -70 -55
-98 -150 -98 -37 0 -48 5 -71 31 -14 18 -37 54 -51 80 -13 27 -30 49 -37 49
-7 0 -24 -13 -40 -29 -49 -53 -32 -99 61 -168 82 -60 102 -81 102 -107 0 -18
4 -16 28 14 15 19 41 48 57 64 34 32 157 116 171 116 5 0 27 12 49 27 34 23
50 27 108 26 37 0 70 -3 73 -6 20 -19 -34 -67 -75 -67 -12 0 -11 -4 4 -19 28
-27 65 -37 65 -17 0 9 9 30 20 48 11 18 20 40 20 49 0 8 10 26 22 39 l22 23
-28 -5 c-23 -5 -29 -1 -40 26 -7 17 -16 47 -20 67 -5 27 -16 44 -44 63 -41 28
-82 34 -82 13z"/>
<path d="M6223 3083 c-35 -7 -28 -27 30 -86 114 -117 121 -141 50 -162 -23 -7
-57 -22 -76 -34 -46 -28 -64 -27 -82 8 -8 16 -18 31 -22 33 -5 1 -21 23 -37
48 -33 52 -66 90 -78 90 -5 0 -25 -17 -44 -37 l-36 -37 26 -21 c68 -52 109
-91 117 -113 6 -15 15 -22 24 -19 21 9 23 -23 5 -58 -9 -16 -15 -36 -13 -42 3
-7 0 -13 -5 -13 -6 0 -18 -7 -27 -17 -23 -22 -107 -30 -134 -11 -11 8 -48 40
-82 72 -75 70 -104 77 -126 30 -15 -30 -15 -35 0 -57 16 -25 75 -49 150 -63
20 -3 37 -10 37 -14 0 -4 9 -10 19 -13 39 -10 74 -132 48 -165 -8 -10 -5 -11
17 -2 15 5 39 7 53 4 16 -4 24 -3 20 3 -3 5 2 9 11 9 44 0 69 6 87 20 20 15
20 15 -2 34 -23 18 -32 37 -13 25 16 -10 11 1 -7 16 -9 8 -14 10 -11 4 8 -16
-25 -67 -50 -76 -19 -7 -22 -5 -22 16 0 14 -4 25 -10 25 -5 0 -14 18 -20 41
-13 48 -7 58 56 95 24 14 46 34 49 44 8 24 93 107 131 127 16 8 72 31 124 50
106 39 117 45 74 41 -16 -1 -34 1 -40 5 -6 3 -30 44 -53 91 -23 46 -47 88 -54
94 -16 14 -56 21 -84 15z"/>
<path d="M5630 2499 c0 -4 11 -27 25 -50 18 -32 25 -38 25 -23 0 11 -11 34
-25 50 -14 16 -25 26 -25 23z"/>
</g>
</svg>
