<?xml version="1.0" encoding="UTF-8" standalone="no"?>
<svg
   xmlns:dc="http://purl.org/dc/elements/1.1/"
   xmlns:cc="http://creativecommons.org/ns#"
   xmlns:rdf="http://www.w3.org/1999/02/22-rdf-syntax-ns#"
   xmlns:svg="http://www.w3.org/2000/svg"
   xmlns="http://www.w3.org/2000/svg"
   xmlns:sodipodi="http://sodipodi.sourceforge.net/DTD/sodipodi-0.dtd"
   xmlns:inkscape="http://www.inkscape.org/namespaces/inkscape"
   version="1.0"
   width="460.000000pt"
   height="480.000000pt"
   viewBox="0 0 460.000000 480.000000"
   preserveAspectRatio="xMidYMid meet"
   id="svg2"
   inkscape:version="0.48.4 r9939"
   sodipodi:docname="PFUDOR.svg">
  <defs
     id="defs48" />
  <sodipodi:namedview
     pagecolor="#ffffff"
     bordercolor="#666666"
     borderopacity="1"
     objecttolerance="10"
     gridtolerance="10"
     guidetolerance="10"
     inkscape:pageopacity="0"
     inkscape:pageshadow="2"
     inkscape:window-width="640"
     inkscape:window-height="480"
     id="namedview46"
     showgrid="false"
     inkscape:zoom="0.78666667"
     inkscape:cx="289.68071"
     inkscape:cy="302.34631"
     inkscape:current-layer="g6" />
  <metadata
     id="metadata4">
Created by potrace 1.11, written by Peter Selinger 2001-2013
<rdf:RDF>
  <cc:Work
     rdf:about="">
    <dc:format>image/svg+xml</dc:format>
    <dc:type
       rdf:resource="http://purl.org/dc/dcmitype/StillImage" />
  </cc:Work>
</rdf:RDF>
</metadata>
  <g
     transform="translate(0.000000,480.000000) scale(0.100000,-0.100000)"
     fill="#000000"
     stroke="none"
     id="g6">
    <path
       d="M3641 4635 c-16 -19 -35 -54 -42 -77 -6 -23 -17 -47 -24 -53 -7 -5 -16 -26 -19 -47 -4 -20 -13 -39 -21 -42 -8 -3 -15 -14 -15 -24 0 -10 -10 -38 -22 -63 -12 -24 -21 -53 -20 -64 1 -11 -6 -27 -15 -37 -18 -20 -63 -125 -63 -147 0 -26 -53 -131 -66 -131 -7 0 -19 9 -27 20 -13 19 -15 17 -40 -33 -31 -61 -32 -67 -12 -67 9 0 20 11 25 25 5 14 12 25 15 25 3 0 28 -16 56 -35 47 -32 53 -34 72 -20 23 16 57 20 57 8 0 -5 16 -19 35 -32 28 -19 44 -23 80 -19 34 4 48 1 60 -13 16 -17 57 -20 72 -6 3 4 13 7 21 7 11 0 12 -9 7 -41 -5 -31 -4 -40 5 -37 17 5 43 92 30 96 -6 2 -10 13 -10 23 0 19 -2 19 -22 5 -12 -9 -26 -16 -30 -16 -7 0 -4 194 6 280 3 30 8 102 10 160 3 58 10 150 17 204 11 91 10 102 -7 135 -10 20 -23 39 -29 43 -22 17 -54 6 -84 -27z"
       id="path8"
       style="stroke:#ff0000;stroke-width:8" />
    <path
       d="M3187 4402 c-10 -10 -17 -22 -17 -26 0 -12 -54 -66 -66 -66 -6 0 -21 -11 -34 -25 -14 -15 -33 -25 -45 -23 -16 2 -20 10 -20 43 0 39 -18 85 -33 85 -5 0 -21 -20 -36 -45 -16 -25 -32 -45 -36 -45 -5 0 -17 -16 -29 -35 -11 -19 -25 -35 -31 -35 -6 0 -28 18 -50 41 -32 34 -41 39 -58 30 -26 -14 -40 3 -50 60 -4 23 -12 44 -19 46 -11 4 -63 -93 -63 -118 0 -22 -44 -89 -58 -89 -8 0 -21 8 -28 18 -28 38 -35 -1 -40 -214 -3 -115 -7 -211 -10 -213 -2 -3 -10 1 -16 7 -20 20 -28 14 -27 -20 0 -30 18 -131 35 -200 5 -24 3 -28 -15 -28 -11 0 -21 -4 -21 -10 0 -18 48 -115 72 -144 54 -67 172 -176 189 -176 14 0 -10 29 -78 98 -88 87 -132 146 -119 159 2 3 13 0 24 -6 34 -18 45 -13 28 11 -9 12 -16 29 -16 37 0 8 -7 22 -15 31 -16 18 -45 121 -45 162 0 30 26 40 36 13 4 -8 12 -15 20 -15 14 0 13 18 -6 100 -12 54 -12 161 1 234 11 67 25 90 40 65 4 -8 15 -23 23 -34 15 -19 16 -19 15 15 0 57 34 180 50 180 11 0 41 -35 41 -47 0 -5 19 -30 42 -54 l43 -44 3 33 c4 39 16 41 39 5 10 -16 20 -30 23 -33 13 -12 54 -141 62 -197 10 -61 26 -80 44 -51 10 17 22 -17 23 -66 1 -41 -16 -114 -31 -130 -13 -16 -10 -58 5 -54 22 8 59 118 58 177 -1 85 -11 141 -27 141 -8 0 -14 -5 -14 -11 0 -24 -24 -1 -27 26 -3 16 -8 34 -12 40 -5 5 -14 31 -22 58 -7 26 -16 47 -20 47 -4 0 -10 12 -14 27 -5 21 -2 32 12 43 10 8 29 32 42 53 12 20 30 37 38 37 12 0 14 -8 8 -37 -3 -21 -13 -43 -21 -49 -13 -10 -20 -34 -9 -34 5 0 95 43 136 65 14 8 50 39 81 70 82 80 94 74 58 -30 -11 -33 -26 -63 -33 -68 -8 -6 -6 -7 6 -3 10 3 25 6 32 6 8 0 20 6 27 13 15 14 63 33 123 50 34 9 74 40 75 58 0 7 -70 -5 -127 -22 -54 -17 -66 -6 -51 43 15 50 4 88 -26 88 -12 0 -30 -8 -39 -18z"
       id="path10"
       style="stroke:#ff0000;stroke-width:8" />
    <path
       d="M3886 4243 c-3 -4 -25 -7 -49 -7 -35 -1 -42 -4 -45 -23 -3 -21 1 -22 68 -25 l71 -3 -28 -37 c-15 -20 -45 -47 -66 -61 l-37 -24 31 -7 c17 -3 51 -6 74 -6 58 0 191 -27 237 -48 40 -18 51 -42 19 -42 -29 0 -101 -51 -101 -72 0 -10 14 -30 30 -45 17 -14 30 -32 30 -40 0 -7 7 -13 16 -13 9 0 38 -15 63 -33 26 -19 79 -51 119 -72 40 -21 72 -42 72 -47 0 -4 -14 -15 -31 -24 -23 -11 -53 -15 -113 -13 -44 2 -81 -1 -81 -6 1 -5 23 -34 50 -65 51 -58 122 -112 185 -140 31 -14 32 -17 15 -24 -11 -4 -55 -10 -98 -13 -73 -6 -77 -7 -71 -27 17 -61 41 -106 66 -122 71 -48 -1 -61 -147 -28 l-30 7 33 -33 c17 -18 32 -39 32 -46 0 -8 4 -14 9 -14 12 0 65 -94 81 -142 9 -30 17 -38 36 -38 33 0 31 29 -6 104 -31 62 -28 86 9 86 9 0 24 9 34 20 9 11 23 20 31 20 7 0 19 7 26 15 19 23 -2 62 -45 79 -38 16 -54 41 -38 57 6 6 33 12 60 13 38 2 59 10 86 32 21 16 37 35 37 41 0 10 -116 73 -134 73 -12 0 -99 90 -93 96 4 4 22 8 42 9 19 1 40 7 47 12 7 5 28 16 46 23 35 13 57 43 49 64 -3 7 -36 25 -74 40 -37 15 -75 34 -83 41 -8 7 -33 22 -55 33 -49 25 -115 86 -115 105 0 22 21 35 77 48 38 9 53 18 57 33 6 24 -8 43 -37 52 -12 3 -50 19 -85 35 -34 16 -73 29 -86 29 -14 0 -28 5 -31 10 -3 6 -23 10 -44 10 -34 0 -61 14 -61 31 0 3 13 23 29 43 26 32 28 41 19 62 -9 20 -18 24 -53 24 -23 0 -45 -3 -49 -7z"
       id="path12"
       style="stroke:#ff0000;stroke-width:8" />
    <path
       d="M2280 4165 c0 -53 -1 -55 -27 -55 -16 1 -68 9 -117 19 -49 11 -95 17 -103 14 -22 -9 -15 -40 17 -70 17 -15 30 -31 30 -35 0 -14 -67 -8 -80 7 -7 8 -17 15 -22 15 -5 0 -38 14 -73 30 -35 17 -71 30 -79 30 -9 0 -20 9 -26 20 -6 11 -19 20 -29 20 -10 0 -24 7 -31 15 -19 23 -60 19 -60 -5 0 -11 4 -20 8 -20 5 0 15 -12 22 -27 8 -16 23 -38 34 -51 15 -17 17 -25 8 -34 -10 -10 -16 -10 -30 0 -54 38 -215 98 -234 86 -14 -9 -9 -35 12 -61 34 -43 16 -49 -167 -57 -93 -3 -184 -10 -203 -15 -227 -61 -238 -65 -219 -87 6 -8 29 -14 50 -14 21 0 41 -4 44 -10 3 -5 15 -10 26 -10 32 0 22 -14 -24 -32 -23 -9 -71 -28 -107 -41 -36 -14 -82 -39 -102 -56 -20 -17 -40 -31 -45 -31 -4 0 -28 -18 -52 -40 -24 -22 -47 -40 -51 -40 -4 0 -15 -12 -25 -26 -9 -14 -24 -33 -33 -43 -9 -9 -30 -36 -46 -59 -34 -50 -27 -69 20 -52 16 6 65 11 109 9 69 -1 88 2 138 26 32 15 56 29 53 32 -2 3 -52 4 -110 4 -118 -1 -126 4 -78 54 83 87 215 175 303 201 30 9 63 20 74 25 17 7 185 39 208 39 4 0 7 5 7 10 0 6 -6 10 -14 10 -8 0 -16 5 -18 11 -3 10 -49 23 -126 36 -18 3 -31 10 -29 17 8 26 350 49 490 33 l57 -7 -15 30 c-8 16 -19 32 -25 35 -18 11 -11 35 10 35 11 0 20 -4 20 -9 0 -4 21 -16 48 -25 73 -27 127 -50 132 -57 3 -4 22 -10 43 -14 l38 -7 -35 53 c-62 92 -61 102 6 72 153 -69 235 -93 320 -93 l62 0 -22 20 c-12 11 -25 20 -29 20 -11 0 -43 37 -43 50 0 14 75 13 159 -2 39 -7 73 -9 76 -6 4 3 -1 20 -9 37 -24 45 -20 54 14 36 38 -20 39 -20 31 13 -5 19 -22 35 -56 54 -72 38 -75 37 -75 -27z"
       id="path14"
       style="stroke:#ff0000;stroke-width:8" />
    <path
       d="M2673 4038 c-14 -18 -34 -80 -28 -86 2 -3 0 -13 -6 -24 -8 -15 -13 -17 -25 -7 -11 9 -14 8 -14 -9 0 -38 45 -188 61 -207 14 -15 10 -45 -5 -45 -8 0 -16 6 -19 13 -2 6 -7 9 -11 5 -4 -3 9 -40 29 -81 37 -79 95 -151 102 -130 3 7 -7 25 -21 40 -30 32 -29 49 3 46 20 -3 31 21 14 29 -20 8 -83 176 -82 217 0 24 1 24 10 6 6 -14 7 -5 4 30 -8 83 -8 128 -1 173 8 44 5 51 -11 30z"
       id="path16"
       style="stroke:#ff0000;stroke-width:8" />
    <path
       d="M2947 3534 c-4 -4 -7 -18 -7 -30 0 -13 -4 -26 -10 -29 -5 -3 -10 -19 -10 -35 0 -16 -5 -32 -10 -35 -6 -4 -8 -10 -5 -15 3 -5 1 -11 -4 -15 -10 -5 -61 -111 -61 -125 0 -4 12 -6 26 -4 16 1 35 -5 47 -17 31 -29 87 -36 104 -14 7 11 23 20 35 22 50 7 66 15 126 72 34 32 62 56 62 53 0 -3 9 3 20 13 14 13 20 31 20 61 0 24 -4 45 -8 48 -4 2 -18 -17 -30 -44 -12 -27 -48 -73 -79 -103 -50 -48 -59 -53 -77 -43 -12 6 -24 15 -28 21 -8 10 0 61 14 88 6 12 4 24 -6 38 -16 23 -21 18 -31 -29 -3 -18 -10 -30 -13 -28 -6 3 -9 -21 -15 -114 -1 -15 -9 -26 -21 -28 -26 -5 -68 19 -62 35 3 8 -2 13 -14 13 -11 0 -20 5 -20 10 0 6 3 10 8 10 8 0 43 87 63 156 11 40 2 84 -14 68z"
       id="path18"
       style="stroke:#ff0000;stroke-width:8" />
    <path
       d="M4030 3461 c0 -16 4 -41 10 -56 12 -32 -12 -46 -39 -21 -10 9 -24 16 -32 16 -12 0 -11 -2 1 -10 8 -5 12 -10 8 -10 -4 0 -4 -10 1 -22 10 -28 4 -48 -15 -48 -17 0 -18 -24 -1 -38 6 -6 23 -13 37 -17 24 -6 25 -4 25 37 l0 43 48 -3 c29 -2 47 0 47 7 0 6 -4 11 -9 11 -4 0 -23 32 -40 70 -18 39 -34 70 -37 70 -2 0 -4 -13 -4 -29z"
       id="path20"
       style="stroke:#ff0000;stroke-width:8" />
    <path
       d="M3333 3395 c-17 -19 -38 -35 -46 -35 -25 0 -144 -121 -161 -164 -9 -21 -16 -40 -16 -42 0 -2 15 -4 33 -4 28 0 36 5 51 36 16 36 60 78 81 80 5 0 18 4 27 8 22 10 63 3 61 -10 -4 -20 115 45 140 77 l25 33 25 -30 c25 -29 98 -74 122 -74 9 0 11 12 8 44 -3 25 -1 46 5 50 6 3 31 -11 56 -31 36 -31 44 -43 40 -63 -27 -147 -32 -343 -9 -366 8 -8 12 -21 9 -28 -5 -14 19 -26 61 -32 11 -1 32 -7 48 -13 36 -14 36 -58 2 -118 -14 -23 -22 -43 -18 -44 4 -1 -12 -6 -37 -13 -29 -8 -56 -9 -78 -4 -18 5 -37 6 -42 3 -6 -4 -9 -3 -8 2 4 13 -55 93 -69 93 -7 0 -13 -9 -13 -20 0 -11 -10 -38 -22 -61 -27 -52 -34 -125 -17 -175 7 -22 12 -45 11 -51 -2 -7 3 -13 9 -13 7 0 9 -3 5 -7 -4 -5 -60 -9 -124 -10 -146 -2 -154 -3 -117 -14 42 -12 227 -23 260 -15 20 5 26 12 22 26 -3 11 1 21 10 24 8 3 12 10 9 15 -8 13 15 62 25 55 5 -3 6 1 4 9 -6 13 63 127 77 127 4 0 5 -7 2 -15 -6 -14 16 -11 71 11 36 14 82 74 83 108 0 5 6 12 12 16 18 11 4 80 -15 80 -8 0 -14 3 -14 8 3 20 -2 32 -16 32 -18 0 -19 -12 -3 -28 9 -9 9 -12 0 -12 -15 0 -15 4 -13 115 1 50 -3 137 -8 195 -8 72 -8 106 -1 110 6 4 8 15 4 25 -5 13 -4 16 4 11 7 -4 15 0 19 10 8 21 -25 84 -44 84 -7 0 -16 7 -19 15 -12 31 -24 13 -24 -35 0 -27 -2 -50 -5 -50 -6 0 -78 48 -88 59 -5 5 -18 19 -29 31 -23 25 -43 22 -43 -8 0 -11 -4 -24 -8 -28 -4 -4 -7 -18 -7 -31 0 -13 -4 -23 -9 -23 -12 0 -91 78 -91 90 0 5 -7 10 -15 10 -8 0 -15 -7 -15 -16 0 -8 -21 -36 -47 -62 l-48 -47 -8 45 c-9 48 -26 90 -37 90 -3 0 -20 -16 -37 -35z m487 -198 c0 -67 -14 -132 -31 -143 -6 -3 -12 -4 -14 -3 -1 2 3 49 11 104 7 55 13 104 14 108 0 5 5 5 10 2 6 -3 10 -34 10 -68z m-9 -230 c-13 -13 -15 1 -4 30 7 17 8 17 11 -1 2 -10 -1 -23 -7 -29z m34 -107 c3 -5 2 -10 -4 -10 -5 0 -13 5 -16 10 -3 6 -2 10 4 10 5 0 13 -4 16 -10z"
       id="path22"
       style="stroke:#ff0000;stroke-width:8" />
    <path
       d="M536 3346 c-42 -42 -76 -80 -76 -86 0 -6 -11 -26 -24 -43 -13 -18 -39 -60 -57 -95 -19 -34 -40 -72 -47 -85 -8 -14 -11 -40 -7 -73 5 -44 3 -53 -20 -78 -14 -15 -25 -31 -25 -36 0 -5 -11 -21 -23 -37 -13 -15 -27 -41 -31 -58 -4 -16 -15 -48 -26 -70 -10 -22 -21 -51 -25 -64 -7 -22 -5 -23 27 -16 18 4 43 18 56 31 13 13 27 24 32 24 21 0 9 -26 -24 -52 -19 -15 -36 -39 -39 -55 -8 -45 -37 -116 -51 -127 -15 -12 -46 -99 -46 -128 0 -10 -7 -21 -15 -24 -19 -8 -20 -38 -2 -53 8 -6 28 -14 45 -17 26 -5 32 -11 32 -32 0 -13 -7 -30 -16 -37 -9 -6 -18 -26 -19 -43 -2 -18 -11 -67 -21 -109 -17 -74 -17 -78 1 -122 15 -39 18 -77 19 -258 1 -208 2 -213 24 -234 13 -11 25 -19 27 -18 2 2 9 33 15 69 17 89 18 92 33 88 8 -3 14 -40 19 -109 4 -57 11 -124 17 -149 6 -25 10 -62 11 -82 0 -43 16 -51 26 -14 6 26 32 42 45 29 4 -4 9 -30 12 -58 3 -27 9 -68 15 -90 5 -22 13 -61 17 -88 3 -26 10 -45 15 -42 4 3 6 -4 3 -15 -5 -18 44 -130 57 -130 3 0 12 5 20 10 13 8 11 16 -11 57 -15 27 -34 84 -44 128 -9 44 -21 88 -27 99 -8 15 -13 95 -19 281 0 22 -59 -89 -59 -112 0 -24 -29 -14 -36 13 -7 27 2 321 12 391 l6 42 -26 -12 c-14 -7 -30 -23 -36 -37 -21 -47 -35 -70 -43 -70 -13 0 -1 231 16 330 8 47 13 87 10 90 -2 2 -13 -1 -23 -8 -11 -7 -22 -12 -25 -12 -10 0 -5 67 10 125 13 52 69 180 85 195 3 3 16 20 29 38 24 34 23 51 -1 36 -14 -9 -108 -43 -120 -44 -32 -1 71 247 127 308 14 15 25 34 25 44 0 9 3 18 8 20 4 2 20 19 36 38 15 19 46 54 68 78 21 23 36 42 32 42 -15 0 -144 -64 -144 -72 0 -4 -7 -8 -15 -8 -8 0 -24 -5 -35 -12 -10 -7 -22 -9 -26 -5 -9 9 47 118 64 124 6 3 12 12 12 20 0 8 16 31 35 51 19 21 50 54 68 75 19 20 40 37 46 37 6 0 11 7 11 15 0 8 6 15 13 15 13 1 52 33 77 64 14 18 13 18 -10 12 -101 -28 -160 -50 -160 -59 0 -7 -3 -8 -10 -1 -11 11 8 64 23 64 4 0 7 6 7 14 0 8 14 28 30 46 17 18 30 36 30 42 0 16 128 138 145 138 8 0 15 5 15 10 0 6 -9 10 -19 10 -11 0 -26 3 -34 6 -9 3 -42 -22 -91 -70z m-346 -1896 c0 -11 -2 -20 -4 -20 -2 0 -6 9 -9 20 -3 11 -1 20 4 20 5 0 9 -9 9 -20z m7 -52 c-3 -8 -6 -5 -6 6 -1 11 2 17 5 13 3 -3 4 -12 1 -19z"
       id="path24"
       style="stroke:#ff0000;stroke-width:8" />
    <path
       d="M3423 3233 c-20 -10 -33 -24 -33 -35 0 -60 -93 -158 -150 -158 -27 0 -52 20 -63 53 -4 12 -17 17 -40 17 -31 0 -35 -4 -41 -31 -19 -95 9 -214 70 -299 52 -72 156 -108 231 -79 43 16 103 78 129 134 l24 50 1 -80 c0 -59 3 -74 9 -57 17 42 23 175 10 257 -15 99 -81 247 -109 244 -3 0 -21 -8 -38 -16z m-23 -231 c0 -25 -19 -42 -47 -42 -27 0 -30 21 -7 44 21 22 54 21 54 -2z"
       id="path26"
       style="stroke:#ff0000;stroke-width:8" />
    <path
       d="M2968 2949 c-29 -17 -21 -24 27 -24 45 0 61 17 29 29 -22 8 -36 7 -56 -5z"
       id="path28"
       style="stroke:#ff0000;stroke-width:8" />
    <path
       d="M4128 2947 c35 -42 72 -217 58 -274 -6 -22 -36 -34 -36 -14 0 5 -13 14 -30 20 l-30 10 0 -51 c0 -77 -55 -258 -78 -258 -4 0 -19 21 -32 48 -14 26 -28 49 -32 50 -5 2 -8 10 -8 18 0 8 -4 14 -10 14 -5 0 -10 -5 -10 -11 0 -25 -93 -198 -131 -241 -43 -50 -59 -59 -59 -32 0 9 -5 34 -11 55 l-12 38 -33 -26 c-20 -15 -46 -52 -65 -91 -47 -101 -47 -101 -91 -50 -21 24 -38 49 -38 56 0 8 -9 25 -20 39 -11 14 -20 36 -20 49 0 13 -5 24 -10 24 -16 0 -50 -80 -50 -117 0 -21 -5 -33 -14 -33 -22 0 -84 70 -112 127 -14 29 -29 53 -33 53 -9 0 -39 -65 -43 -95 -2 -11 -10 -20 -17 -20 -24 0 -79 87 -91 143 -13 61 -35 72 -27 13 8 -59 36 -111 93 -171 57 -59 56 -59 71 20 l8 45 25 -29 c60 -71 121 -126 140 -126 11 0 20 -4 20 -10 0 -5 7 -10 16 -10 11 0 14 6 10 20 -3 11 -9 29 -12 40 -3 11 -2 29 1 41 5 16 10 18 20 9 8 -7 17 -21 21 -32 11 -36 111 -141 129 -135 5 2 12 19 16 38 6 41 66 169 79 169 5 0 12 -4 15 -10 9 -14 -15 -134 -28 -142 -9 -6 -8 -8 1 -8 19 0 138 124 177 185 33 53 75 137 75 151 0 8 4 14 10 14 15 0 50 -89 50 -129 l0 -36 20 33 c11 17 24 32 30 32 5 0 10 8 10 19 0 10 6 24 14 30 20 17 55 121 64 188 l7 58 40 -39 39 -40 8 35 c10 45 -1 212 -18 268 -15 51 -12 61 17 54 17 -5 20 -2 17 13 -2 15 -14 20 -57 22 -46 3 -53 1 -43 -11z"
       id="path30"
       style="stroke:#ff0000;stroke-width:8" />
    <path
       d="M2980 2860 c-19 -19 -27 -40 -15 -40 3 0 14 9 25 20 11 11 33 20 50 20 17 0 30 5 30 10 0 19 -69 11 -90 -10z"
       id="path32"
       style="stroke:#ff0000;stroke-width:8" />
    <path
       d="M4300 2845 c0 -13 45 -95 52 -95 4 0 8 -8 8 -18 0 -10 5 -23 11 -29 20 -20 1 -33 -31 -21 -32 11 -74 3 -53 -10 16 -10 153 -280 153 -301 0 -9 4 -21 9 -27 4 -5 11 -24 15 -42 6 -33 6 -34 -26 -27 -18 4 -39 11 -48 16 -64 35 -128 41 -83 7 20 -14 37 -48 59 -118 8 -25 19 -54 24 -65 5 -11 11 -36 14 -55 2 -19 10 -59 17 -88 13 -58 7 -76 -16 -46 -8 10 -15 15 -15 11 0 -4 -11 4 -25 18 -34 33 -77 33 -46 0 26 -29 49 -175 57 -354 7 -147 2 -158 -44 -90 -13 19 -32 35 -43 35 -16 1 -19 -6 -20 -40 -3 -77 -6 -111 -13 -146 -22 -101 -39 -166 -47 -174 -5 -6 -9 -17 -9 -25 0 -21 -47 -116 -64 -130 -19 -16 -36 -6 -36 20 0 31 -57 107 -81 109 -4 0 -9 -24 -12 -52 -11 -109 -29 -223 -38 -232 -5 -6 -9 -22 -9 -38 0 -29 -27 -117 -40 -131 -4 -5 -16 14 -26 42 -16 45 -53 101 -66 101 -8 0 -26 -51 -34 -94 -4 -21 -32 -90 -64 -154 -36 -72 -55 -123 -52 -138 4 -20 7 -21 23 -11 10 6 19 23 19 36 0 13 3 21 6 18 8 -7 59 94 70 138 4 16 16 38 26 50 l19 20 19 -24 c10 -14 21 -42 24 -63 5 -29 11 -38 26 -38 13 0 20 7 20 18 0 10 4 22 9 28 5 5 16 41 26 79 9 39 23 80 31 92 8 12 14 33 14 47 0 14 4 36 9 49 5 13 12 45 14 71 3 26 8 51 12 54 12 12 35 -31 35 -65 0 -20 5 -33 13 -32 13 1 117 123 117 138 0 5 18 49 41 97 22 49 45 111 51 139 13 65 25 76 35 34 7 -24 16 -35 31 -37 18 -3 26 6 44 45 19 44 21 63 19 220 -1 95 -6 187 -12 205 -5 17 -6 34 -4 37 10 9 25 -16 43 -69 9 -29 22 -55 28 -57 21 -7 37 54 30 115 -4 31 -10 77 -13 102 -3 25 -9 49 -14 55 -5 5 -9 21 -9 35 0 14 -13 67 -29 118 -16 51 -25 95 -20 98 12 7 45 -12 64 -39 13 -19 17 -20 25 -7 17 27 12 150 -9 194 -43 94 -51 115 -51 128 0 8 -11 29 -25 48 -36 48 -33 61 13 58 32 -3 37 0 40 20 2 13 -3 24 -12 28 -8 3 -20 21 -26 40 -7 19 -20 39 -31 44 -11 6 -19 21 -19 36 0 13 -6 27 -14 30 -8 3 -19 19 -25 35 -7 22 -16 29 -35 29 -15 0 -26 -2 -26 -5z m117 -1407 c-3 -7 -5 -2 -5 12 0 14 2 19 5 13 2 -7 2 -19 0 -25z m-93 -27 c3 -5 -1 -11 -9 -14 -9 -4 -12 -1 -8 9 6 16 10 17 17 5z"
       id="path34"
       style="stroke:#ff0000;stroke-width:8" />
    <path
       d="M3057 2812 c-18 -19 -22 -44 -10 -55 4 -4 12 6 19 23 7 16 20 30 29 30 8 0 15 5 15 10 0 17 -36 11 -53 -8z"
       id="path36"
       style="stroke:#ff0000;stroke-width:8" />
    <path
       d="M3955 1972 c12 -37 25 -94 29 -127 4 -33 10 -70 13 -82 8 -34 -17 -29 -61 13 l-39 36 7 -33 c23 -112 13 -307 -17 -326 -6 -3 -27 13 -47 37 l-37 43 -10 -80 c-11 -82 -55 -199 -72 -189 -5 3 -14 35 -21 71 -11 57 -50 158 -50 129 0 -18 -81 -105 -91 -98 -5 3 -7 33 -3 70 7 66 -6 170 -31 248 l-12 39 -18 -39 c-25 -59 -30 -67 -42 -71 -15 -5 -26 29 -12 38 8 5 10 36 6 105 -5 93 -16 142 -44 189 -20 35 -21 12 -2 -60 27 -102 22 -216 -13 -307 -6 -15 -8 -35 -4 -43 5 -14 9 -14 33 2 16 9 42 32 60 51 l32 33 6 -34 c9 -44 1 -236 -9 -259 -7 -15 -3 -18 18 -18 15 0 32 5 39 10 48 40 67 61 67 71 0 9 3 9 14 0 19 -16 36 -89 36 -155 0 -31 4 -56 9 -56 17 0 72 63 91 105 10 22 24 64 31 93 14 56 26 63 54 32 10 -11 21 -20 25 -20 17 0 53 141 59 229 l6 95 27 -32 c15 -18 31 -32 36 -32 12 0 4 148 -13 241 -16 91 -39 149 -58 149 -12 0 -10 -13 8 -68z"
       id="path38"
       style="stroke:#ff0000;stroke-width:8" />
    <path
       d="M4473 1515 c0 -22 2 -30 4 -17 2 12 2 30 0 40 -3 9 -5 -1 -4 -23z"
       id="path40"
       style="stroke:#ff0000;stroke-width:8" />
    <path
       d="M660 819 c-63 -68 -65 -72 -73 -91 -3 -10 -13 -18 -20 -18 -25 0 -41 -28 -27 -45 10 -12 19 -6 57 40 25 30 50 55 55 55 17 0 24 -43 16 -98 -6 -36 -5 -66 2 -88 6 -19 9 -38 5 -44 -3 -5 -3 -26 1 -45 l6 -36 57 54 c78 74 171 119 171 82 0 -33 -22 -172 -31 -193 -5 -13 -6 -22 -2 -20 151 68 199 110 243 213 29 67 45 55 47 -36 1 -70 12 -170 18 -177 5 -6 119 30 155 49 19 10 57 43 83 73 47 54 69 67 82 46 7 -11 -37 -154 -62 -202 -13 -26 -12 -28 12 -34 19 -5 40 3 88 34 34 22 76 48 94 58 18 10 35 25 38 33 4 9 -5 5 -20 -9 -17 -16 -24 -19 -20 -8 7 17 29 30 54 32 8 1 16 7 19 15 3 9 0 11 -9 6 -8 -5 -11 -4 -6 1 5 5 12 9 15 9 4 0 13 4 20 8 24 16 29 5 46 -88 5 -27 5 -28 -3 -5 -6 17 -7 4 -4 -40 6 -69 13 -92 13 -44 0 16 4 24 8 17 5 -8 18 -6 47 8 l40 19 -35 -31 c-19 -17 -26 -26 -15 -21 24 12 82 72 70 72 -5 0 0 7 11 16 10 8 13 13 7 9 -7 -3 -13 -1 -13 4 0 6 5 11 11 11 6 0 25 11 41 25 25 21 33 23 45 13 13 -10 15 -30 10 -111 -6 -98 -6 -98 16 -92 35 10 188 116 181 126 -3 5 1 6 9 3 8 -3 20 2 27 11 27 32 71 8 85 -48 4 -15 11 -30 16 -33 10 -6 62 20 105 52 17 13 35 24 39 24 4 0 23 11 41 25 53 40 64 34 64 -33 0 -62 11 -82 46 -82 12 0 24 -6 27 -12 3 -8 24 9 54 41 53 59 67 60 78 8 17 -79 59 -78 137 4 73 76 93 76 89 2 l-2 -53 31 6 c29 6 49 20 124 87 59 52 74 70 72 81 -2 6 -1 7 2 3 2 -5 12 -1 22 8 10 9 23 14 28 11 5 -3 18 -41 28 -85 18 -77 20 -80 44 -75 41 9 130 121 130 164 0 32 19 70 35 70 8 0 15 -3 16 -7 8 -77 14 -105 33 -145 16 -33 26 -44 36 -38 16 10 1 92 -37 204 -13 38 -23 78 -23 88 0 11 -4 17 -9 13 -13 -7 -71 -124 -71 -142 0 -7 -4 -13 -8 -13 -5 0 -17 -18 -27 -40 -10 -22 -24 -40 -31 -40 -7 0 -14 -10 -16 -22 -4 -31 -38 -37 -38 -7 0 33 -43 209 -51 209 -4 0 -14 -15 -23 -34 -8 -18 -22 -39 -31 -46 -8 -7 -15 -16 -15 -21 0 -20 -134 -159 -153 -159 -10 0 -17 15 -22 48 -7 53 -26 112 -35 112 -4 0 -13 -12 -20 -27 -26 -50 -147 -176 -164 -170 -6 2 -16 32 -23 66 -21 102 -24 103 -74 33 -24 -34 -47 -62 -51 -62 -5 0 -17 -9 -29 -21 -27 -27 -37 -16 -45 46 -4 28 -15 69 -25 93 l-19 43 -32 -37 c-18 -21 -69 -64 -113 -97 l-80 -60 -6 62 c-10 100 -66 173 -83 109 -3 -13 -19 -36 -36 -53 -17 -16 -41 -41 -53 -54 -24 -26 -91 -71 -106 -71 -4 0 -11 37 -14 83 -6 94 -19 142 -48 176 -23 29 -32 22 -49 -40 -6 -21 -17 -40 -25 -43 -8 -3 -15 -12 -15 -20 0 -8 -19 -35 -43 -61 -52 -55 -58 -51 -76 45 -15 77 -31 120 -48 120 -6 0 -22 -15 -35 -33 -50 -72 -194 -185 -212 -167 -4 4 -3 31 3 60 6 28 11 76 11 106 0 78 -17 74 -125 -32 -47 -46 -147 -104 -180 -104 -17 0 -25 46 -25 144 0 50 -5 87 -12 94 -19 19 -58 14 -66 -7 -14 -38 -98 -150 -127 -169 -65 -45 -66 -45 -63 59 l3 94 -33 3 c-24 2 -46 -5 -73 -22 -21 -14 -42 -26 -46 -26 -4 0 -17 -10 -30 -22 -16 -15 -26 -19 -34 -11 -17 17 -13 199 7 306 8 38 -4 33 -56 -24z m2660 -317 c0 -4 -11 -8 -24 -8 -14 0 -22 4 -20 8 3 4 14 8 25 8 10 0 19 -4 19 -8z m-293 -89 c3 -7 -4 -9 -16 -6 -12 3 -18 9 -15 15 7 11 26 6 31 -9z m-234 -27 c4 -10 0 -12 -15 -8 -15 4 -17 7 -6 13 17 11 15 11 21 -5z m-903 -20 c0 -3 -4 -8 -10 -11 -5 -3 -10 -1 -10 4 0 6 5 11 10 11 6 0 10 -2 10 -4z m1050 -21 c-7 -9 -15 -13 -19 -10 -3 3 1 10 9 15 21 14 24 12 10 -5z"
       id="path42"
       style="stroke:#ff0000;stroke-width:8" />
    <path
       d="M2600 280 c0 -6 7 -10 15 -10 8 0 15 2 15 4 0 2 -7 6 -15 10 -8 3 -15 1 -15 -4z"
       id="path44"
       style="stroke:#ff0000;stroke-width:8" />
  </g>
</svg>
