<?xml version="1.0" encoding="UTF-8" standalone="no"?>
<svg
   xmlns:dc="http://purl.org/dc/elements/1.1/"
   xmlns:cc="http://creativecommons.org/ns#"
   xmlns:rdf="http://www.w3.org/1999/02/22-rdf-syntax-ns#"
   xmlns:svg="http://www.w3.org/2000/svg"
   xmlns="http://www.w3.org/2000/svg"
   xmlns:sodipodi="http://sodipodi.sourceforge.net/DTD/sodipodi-0.dtd"
   xmlns:inkscape="http://www.inkscape.org/namespaces/inkscape"
   version="1.0"
   width="342.000000pt"
   height="310.000000pt"
   viewBox="0 0 342.000000 310.000000"
   preserveAspectRatio="xMidYMid meet"
   id="svg2"
   inkscape:version="0.48.4 r9939"
   sodipodi:docname="spock.svg">
  <defs
     id="defs12" />
  <sodipodi:namedview
     pagecolor="#ffffff"
     bordercolor="#666666"
     borderopacity="1"
     objecttolerance="10"
     gridtolerance="10"
     guidetolerance="10"
     inkscape:pageopacity="0"
     inkscape:pageshadow="2"
     inkscape:window-width="640"
     inkscape:window-height="480"
     id="namedview10"
     showgrid="false"
     inkscape:zoom="0.43065084"
     inkscape:cx="356.34159"
     inkscape:cy="199.90059"
     inkscape:current-layer="g6" />
  <metadata
     id="metadata4">
Created by potrace 1.11, written by Peter Selinger 2001-2013
<rdf:RDF>
  <cc:Work
     rdf:about="">
    <dc:format>image/svg+xml</dc:format>
    <dc:type
       rdf:resource="http://purl.org/dc/dcmitype/StillImage" />
  </cc:Work>
</rdf:RDF>
</metadata>
  <g
     transform="translate(0.000000,310.000000) scale(0.100000,-0.100000)"
     fill="#000000"
     stroke="none"
     id="g6"
     style="fill:none;stroke:#000000">
    <path
       d="M 0,1550 0,0 385,0 c 284,0 391,3 411,12 22,10 28,10 32,0 3,-9 278,-12 1298,-12 l 1294,0 0,1550 0,1550 -1710,0 -1710,0 z m 1133,1463 c -14,-3 -20,-9 -16,-19 3,-8 1,-14 -5,-14 -5,0 -31,-12 -56,-27 -26,-16 -57,-33 -68,-39 -11,-7 -40,-34 -64,-60 -33,-37 -43,-44 -44,-30 0,29 79,130 130,163 29,19 73,31 115,31 21,-1 24,-2 8,-5 z m 11,-159 c 18,-7 12,-24 -10,-24 -8,0 -14,7 -14,15 0,17 2,18 24,9 z m 146,-54 c 20,-13 10,-19 -22,-13 -15,3 -25,9 -22,14 7,12 25,11 44,-1 z m -90,-77 c 51,-14 60,-20 60,-40 0,-25 -18,-30 -51,-13 -10,6 -19,7 -19,2 0,-4 19,-18 43,-29 40,-21 41,-22 14,-22 -50,-1 -96,-41 -48,-41 11,0 23,-4 26,-10 9,-15 25,-12 25,4 0,9 12,13 40,12 l 40,-1 0,-70 c 0,-60 -3,-72 -20,-83 -24,-15 -18,-32 12,-32 11,0 32,-9 47,-19 26,-19 27,-19 51,0 35,26 52,25 40,-3 -5,-13 -11,-40 -15,-60 -5,-35 -7,-37 -31,-28 -14,6 -53,9 -87,9 l -62,-2 73,-12 c 105,-17 121,-40 22,-31 l -75,6 33,-20 c 18,-11 45,-19 60,-18 34,4 39,-20 12,-55 -20,-25 -27,-27 -91,-27 -64,0 -73,3 -128,40 -32,22 -80,65 -106,96 -26,30 -50,53 -53,50 -5,-6 17,-67 28,-76 3,-3 23,-28 43,-57 40,-55 130,-133 154,-133 8,0 11,-5 8,-10 -7,-12 -42,-7 -145,17 -81,20 -161,54 -190,83 l -21,21 19,34 c 12,20 23,62 27,108 7,75 7,76 -25,116 -30,37 -34,49 -43,146 -7,81 -7,108 3,120 18,22 30,18 30,-8 0,-13 11,-34 25,-47 54,-51 97,-157 69,-167 -19,-6 -44,26 -44,56 0,18 -11,37 -32,57 l -32,29 22,-38 c 12,-21 22,-47 22,-58 0,-41 19,-59 60,-59 l 40,0 0,43 c 0,69 25,139 65,177 19,19 35,40 35,47 0,16 -2,16 70,-4 z m 143,-29 c 33,-8 84,-14 111,-12 45,3 51,1 54,-17 2,-15 -8,-24 -43,-39 -38,-15 -78,-53 -60,-57 3,-1 8,-2 13,-3 4,-1 17,-8 30,-15 13,-7 30,-10 38,-7 18,7 19,-68 2,-107 -11,-23 -18,-27 -45,-23 -18,2 -34,-1 -36,-8 -3,-7 -13,-6 -33,6 -27,16 -29,21 -32,88 -2,44 2,77 9,86 14,17 -7,40 -51,55 -24,9 -30,17 -30,40 0,34 -4,33 73,13 z m 167,-94 c 0,-5 -2,-10 -4,-10 -3,0 -8,5 -11,10 -3,6 -1,10 4,10 6,0 11,-4 11,-10 z m -30,-40 c 0,-5 -2,-10 -4,-10 -3,0 -8,5 -11,10 -3,6 -1,10 4,10 6,0 11,-4 11,-10 z M 810,2118 c 1,-30 41,-62 125,-99 49,-21 97,-39 106,-39 10,0 20,-4 23,-9 4,-5 44,-22 91,-37 l 84,-27 42,27 c 23,16 46,41 52,57 6,16 14,29 18,29 23,0 130,-60 181,-101 33,-27 65,-46 69,-43 5,3 9,1 9,-4 0,-5 14,-26 30,-47 17,-21 30,-34 30,-29 0,5 9,-6 20,-24 11,-18 18,-37 15,-42 -3,-4 -2,-10 3,-12 4,-1 24,-37 44,-78 43,-91 77,-134 154,-198 71,-59 235,-168 267,-177 19,-6 91,-43 297,-153 90,-48 154,-84 170,-98 8,-7 21,-14 29,-16 37,-8 118,-84 142,-134 13,-24 26,-44 31,-44 4,0 8,-5 8,-12 0,-9 -3,-9 -12,0 -7,7 -22,12 -34,12 -13,0 -26,5 -29,10 -3,6 -10,10 -15,10 -10,0 -8,-19 3,-37 6,-9 3,-11 -7,-7 -9,3 -16,10 -16,16 0,5 -17,17 -37,26 -21,10 -49,24 -63,32 -14,8 -27,15 -30,15 -14,2 -68,36 -79,49 -20,23 -29,19 -23,-9 8,-46 -46,-81 -68,-45 -6,9 -23,13 -49,12 -31,-2 -39,1 -35,11 2,7 -4,21 -15,31 -11,10 -28,43 -37,73 -21,66 -41,81 -126,93 -78,11 -168,38 -168,49 0,5 -23,24 -51,42 -29,18 -59,40 -68,49 -9,9 -45,40 -81,70 -36,30 -69,57 -74,62 -6,4 0,18 15,34 l 24,26 -30,24 c -40,33 -126,73 -142,67 -7,-3 -17,-21 -21,-42 -9,-36 -25,-98 -60,-226 -31,-115 -55,-218 -58,-251 -7,-92 -58,-382 -71,-402 -8,-13 -22,-26 -31,-29 -9,-3 -42,-21 -72,-39 -39,-22 -91,-40 -175,-58 -66,-15 -139,-31 -163,-36 -86,-20 -112,-10 -73,29 22,22 84,121 107,171 20,43 30,50 74,50 34,0 35,2 37,40 2,35 -1,42 -22,52 -31,14 -31,32 -4,100 49,121 59,170 58,283 0,61 -4,136 -8,168 -7,54 -6,59 21,84 25,24 28,34 28,90 0,68 -20,130 -45,139 -8,3 -15,10 -15,15 0,9 -12,28 -87,146 -19,29 -39,65 -46,81 -23,54 -80,107 -147,136 -36,16 -75,37 -88,47 l -22,17 26,21 c 30,23 64,28 64,9 z M 703,2003 c 67,-47 80,-53 124,-53 32,0 46,-5 57,-22 9,-12 16,-26 16,-30 0,-14 -31,-8 -36,7 -4,9 -19,15 -37,15 -30,0 -30,0 -12,-20 17,-19 17,-22 2,-37 -15,-15 -17,-15 -22,3 -17,53 -26,65 -43,61 -18,-4 -87,26 -97,43 -3,5 -26,15 -51,21 -47,12 -54,22 -26,39 26,16 80,4 125,-27 z m -72,-58 c 71,-37 118,-81 149,-137 17,-32 35,-60 41,-63 5,-4 18,-23 28,-44 l 20,-38 -35,-38 c -28,-31 -34,-47 -34,-82 0,-35 -3,-43 -18,-43 -42,0 -230,-161 -259,-222 -24,-49 -43,-107 -43,-130 0,-8 -9,-23 -21,-34 -13,-12 -18,-26 -15,-40 6,-22 5,-22 -81,7 -47,16 -106,40 -129,54 l -44,26 7,47 c 3,26 12,61 19,79 7,18 15,54 19,80 3,26 12,75 20,108 7,33 19,103 25,155 12,90 15,99 63,169 37,52 71,87 120,121 75,53 104,58 168,25 z m 447,-298 c 12,-13 19,-27 15,-30 -11,-12 -43,-8 -40,5 1,7 -7,14 -19,16 -25,4 -94,-75 -94,-107 0,-24 -18,-37 -32,-23 -7,7 -5,20 5,41 17,34 6,51 -19,30 -17,-14 -33,-4 -18,11 16,16 147,78 165,79 8,1 25,-9 37,-22 z M 813,1430 c 5,-21 20,-38 54,-60 55,-34 99,-38 169,-14 25,8 48,14 50,11 8,-7 12,-312 4,-322 -4,-5 -12,-32 -19,-59 -12,-49 -48,-125 -76,-161 -14,-17 -28,-20 -113,-20 -161,0 -262,17 -284,50 -12,17 20,26 63,16 23,-5 47,-7 54,-5 7,3 28,-1 46,-9 75,-31 149,-32 149,-2 0,31 25,66 52,73 l 29,7 -37,43 c -20,24 -35,44 -33,46 2,2 14,9 27,15 12,6 22,15 22,20 0,10 -152,59 -207,66 -56,7 -96,23 -88,35 3,5 27,7 53,4 l 47,-6 -25,21 -25,21 65,1 c 36,1 75,1 87,0 39,-3 133,47 133,71 0,15 -39,8 -75,-14 -67,-39 -328,-33 -295,7 8,9 47,13 141,14 99,0 135,4 152,16 20,14 11,15 -110,15 -72,0 -143,4 -157,10 -24,9 -24,10 -10,39 14,27 70,78 104,93 32,14 47,8 53,-22 z M 290,1079 c 30,-11 69,-25 87,-30 45,-13 47,-34 13,-94 -16,-29 -30,-61 -30,-71 0,-10 -9,-37 -21,-60 l -20,-43 30,-45 c 17,-25 31,-49 31,-54 0,-12 154,-172 165,-172 10.08859,-15.65335 31.50216,-59.5298 35,-66 31,-60 38,-100 18,-106 -7,-3 -21,13 -31,34 -14,28 -28,41 -48,45 -27,5 -42,23 -43,53 -1,8 -12,20 -25,26 -13,7 -32,25 -42,40 -10,16 -19,26 -19,21 0,-4 18,-34 40,-66 44,-64 47,-73 27,-90 -11,-8 -20,-6 -40,12 -15,12 -27,28 -27,34 0,15 -32,33 -59,33 -11,0 -25,9 -31,21 -7,11 -14,19 -16,16 -3,-2 5,-21 17,-41 45,-77 0,-39 -92,76 -68,85 -79,109 -79,169 0,32 4,80 9,106 5,26 15,93 21,148 7,55 17,106 22,113 15,17 45,15 108,-9 z M 803,710 c 31,-4 64,-13 72,-20 12,-10 18,-10 30,0 26,21 18,-9 -21,-80 -20,-36 -47,-86 -60,-112 -14,-26 -28,-50 -33,-52 -5,-3 -28,0 -52,7 -24,7 -56,12 -71,11 -20,-2 -28,3 -32,21 -3,13 -16,25 -31,29 -17,4 -25,13 -25,29 0,44 14,48 43,12 15,-19 32,-35 37,-35 14,0 0,32 -22,52 -11,9 -22,38 -27,67 -8,51 -5,54 29,26 18,-15 110,-28 110,-16 0,17 -50,61 -70,61 -19,0 -26,10 -14,22 3,3 22,1 42,-4 20,-5 63,-13 95,-18 z m 177,-26 c 0,-3 -24,-45 -52,-93 -29,-47 -53,-89 -53,-93 0,-13 -46,-68 -56,-68 -9,0 99,216 124,248 10,12 37,17 37,6 z"
       id="path8"
       style="fill:#000000;stroke:#ff0000;stroke-width:4"
       inkscape:connector-curvature="0"
       sodipodi:nodetypes="ccsccsccccccccsccccccccssccccccscsccscsccscscccccccccccccscccccsccsccccccsccscccsscscscccccccsccccccccscsscsssscssccsccccssccscssccccccsccsssscsccscsccccccsccscsscccccccccscccscsccccccscsccccccccscscscsccccccccccccsscsccccccsccccccscccssccscsccccsccsccccscccscsccccccccsccccscccccccscccsccccccccssccsscccssscccccccccscccscscccsssscscsscs" />
  </g>
</svg>
